<?xml version="1.0" standalone="no"?><!DOCTYPE svg PUBLIC "-//W3C//DTD SVG 1.1//EN" "http://www.w3.org/Graphics/SVG/1.1/DTD/svg11.dtd" ><svg xmlns="http://www.w3.org/2000/svg"><metadata></metadata><defs><font id="FontForge 2.0 : anticon : 11-5-2017" horiz-adv-x="1025"><font-face font-family="anticon" font-weight="500" font-stretch="normal" units-per-em="1024" panose-1="2 0 6 3 0 0 0 0 0 0" ascent="897" descent="-129" x-height="0" bbox="-30 -129 1025 902" underline-thickness="0" underline-position="0" unicode-range="U+0000-e952" /><missing-glyph horiz-adv-x="1024"  /><glyph glyph-name=".null" unicode="" d="" /><glyph glyph-name="nonmarkingreturn" unicode="" d="" /><glyph glyph-name="x" unicode="x" d="M281 543 q-27 -1 -53 -1 l-83 0 q-18 0 -36.5 -6 q-18.5 -6 -32.5 -18.5 q-14 -12.5 -23 -32 q-9 -19.5 -9 -45.5 l0 -76 l912 0 l0 41 q0 16 -0.5 30 q-0.5 14 -0.5 18 q0 13 -5 29 q-5 16 -17 29.5 q-12 13.5 -31.5 22.5 q-19.5 9 -49.5 9 l-133 0 l0 -97 l-438 0 l0 97 ZM955 310 l0 -52 q0 -23 0.5 -52 q0.5 -29 0.5 -58 q0 -29 -10.5 -47.5 q-10.5 -18.5 -26 -30 q-15.5 -11.5 -33 -16 q-17.5 -4.5 -31.5 -4.5 q-14 -1 -29.5 -0.5 q-15.5 0.5 -29.5 0.5 l-32 0 l-45 128 l-439 0 l-44 -128 l-29 0 l-34 0 q-20 0 -45 1 q-25 0 -41 9.5 q-16 9.5 -25.5 23 q-9.5 13.5 -13.5 29.5 q-4 16 -4 30 l0 167 l911 0 ZM163 247 q-12 0 -21 -8.5 q-9 -8.5 -9 -21.5 q0 -13 9 -21.5 q9 -8.5 21 -8.5 q13 0 22 8.5 q9 8.5 9 21.5 q0 13 -9 21.5 q-9 8.5 -22 8.5 ZM316 123 q-8 -26 -14 -48 q-5 -19 -10.5 -37 q-5.5 -18 -7.5 -25 q-2 -7 -3 -15 q-1 -8 1 -14.5 q2 -6.5 9.5 -10.5 q7.5 -4 21.5 -4 l37 0 l67 0 l81 0 l80 0 l64 0 l36 0 q23 0 34 12 q11 12 2 38 q-5 13 -9.5 30.5 q-4.5 17.5 -9.5 34.5 q-5 19 -11 39 l-368 0 ZM336 498 l0 228 q0 11 2.5 23 q2.5 12 10 21.5 q7.5 9.5 20.5 15.5 q13 6 34 6 l188 0 q31 0 51.5 -14.5 q20.5 -14.5 20.5 -52.5 l0 -227 l-327 0 Z" /><glyph glyph-name="stepforward" unicode="&#xe600;" d="M327 820 l431 -356 l0 300 q0 15 10.5 25.5 q10.5 10.5 25.5 10.5 l0 0 q15 0 25.5 -10.5 q10.5 -10.5 10.5 -25.5 l0 -760 q0 -15 -10.5 -25.5 q-10.5 -10.5 -25.5 -10.5 l0 0 q-15 0 -25.5 10.5 q-10.5 10.5 -10.5 25.5 l0 301 l-431 -357 q-21 -18 -46 -7 q-25 11 -25 39 l0 808 q0 28 25 39 q25 11 46 -7 Z" /><glyph glyph-name="stepbackward" unicode="&#xe601;" d="M759 820 l-431 -356 l0 300 q0 15 -10.5 25.5 q-10.5 10.5 -25.5 10.5 l0 0 q-15 0 -25.5 -10.5 q-10.5 -10.5 -10.5 -25.5 l0 -760 q0 -15 10.5 -25.5 q10.5 -10.5 25.5 -10.5 l0 0 q15 0 25.5 10.5 q10.5 10.5 10.5 25.5 l0 301 l431 -357 q21 -18 46 -7 q25 11 25 39 l0 808 q0 28 -25 39 q-25 11 -46 -7 Z" /><glyph glyph-name="forward" unicode="&#xe602;" d="M575 790 l436 -375 q13 -12 13 -30 q0 -18 -13 -29 l-436 -378 q-18 -17 -40.5 -6.5 q-22.5 10.5 -22.5 36.5 l0 377 l0 375 q0 26 22.5 36.5 q22.5 10.5 40.5 -6.5 ZM63 790 l436 -375 q13 -12 13 -30 q0 -18 -13 -29 l-436 -378 q-18 -17 -40.5 -6.5 q-22.5 10.5 -22.5 36.5 l0 752 q0 26 22.5 36.5 q22.5 10.5 40.5 -6.5 Z" /><glyph glyph-name="banckward" unicode="&#xe603;" d="M449 790 l-436 -376 q-13 -11 -13 -29 q0 -18 13 -30 l436 -377 q18 -17 40.5 -6.5 q22.5 10.5 22.5 36.5 l0 377 l0 375 q0 26 -22.5 36.5 q-22.5 10.5 -40.5 -6.5 ZM961 790 l-436 -376 q-13 -11 -13 -29 q0 -18 13 -30 l436 -377 q18 -17 40.5 -6.5 q22.5 10.5 22.5 36.5 l0 752 q0 26 -22.5 36.5 q-22.5 10.5 -40.5 -6.5 Z" /><glyph glyph-name="caretright" unicode="&#xe604;" d="M393 820 l489 -403 q14 -13 14 -32 q0 -19 -14 -32 l-489 -405 q-21 -18 -46 -7 q-25 11 -25 39 l0 808 q0 28 25 39 q25 11 46 -7 Z" /><glyph glyph-name="caretleft" unicode="&#xe605;" d="M631 820 l-489 -403 q-14 -13 -14 -32 q0 -19 14 -32 l489 -405 q21 -18 46 -7 q25 11 25 39 l0 808 q0 28 -25 39 q-25 11 -46 -7 Z" /><glyph glyph-name="caretdown" unicode="&#xe606;" d="M76 504 l403 -489 q13 -15 32 -15 q19 0 32 15 l405 489 q18 20 7 45 q-11 25 -39 25 l-808 0 q-28 0 -39 -25 q-11 -25 7 -45 Z" /><glyph glyph-name="caretup" unicode="&#xe607;" d="M76 263 l405 489 q13 14 32 14 q19 0 32 -14 l403 -489 q18 -20 7 -45.5 q-11 -25.5 -39 -25.5 l-808 0 q-28 0 -39 25.5 q-11 25.5 7 45.5 Z" /><glyph glyph-name="rightcircle" unicode="&#xe608;" d="M711 854.5 q-95 40.5 -199 40.5 q-104 0 -199 -40.5 q-95 -40.5 -163 -109 q-68 -68.5 -109 -163 q-41 -94.5 -41 -199 q0 -104.5 41 -199 q41 -94.5 109 -163 q68 -68.5 163 -109 q95 -40.5 199 -40.5 q104 0 199 40.5 q95 40.5 163 109 q68 68.5 109 163 q41 94.5 41 199 q0 104.5 -41 199 q-41 94.5 -109 163 q-68 68.5 -163 109 ZM681 358 l-235 -220 q-11 -11 -26 -10.5 q-15 0.5 -25 11.5 q-10 11 -9.5 26 q0.5 15 11.5 25 l207 194 l-207 195 q-11 10 -11.5 25 q-0.5 15 9.5 26 q10 11 25 11.5 q15 0.5 26 -9.5 l235 -221 q12 -11 12 -26.5 q0 -15.5 -12 -26.5 Z" /><glyph glyph-name="leftcircle" unicode="&#xe609;" d="M711 854.5 q-95 40.5 -199 40.5 q-104 0 -199 -40.5 q-95 -40.5 -163 -109 q-68 -68.5 -109 -163 q-41 -94.5 -41 -199 q0 -104.5 41 -199 q41 -94.5 109 -163 q68 -68.5 163 -109 q95 -40.5 199 -40.5 q104 0 199 40.5 q95 40.5 163 109 q68 68.5 109 163 q41 94.5 41 199 q0 104.5 -41 199 q-41 94.5 -109 163 q-68 68.5 -163 109 ZM638.5 165 q0.5 -15 -9.5 -26 q-10 -11 -25 -11.5 q-15 -0.5 -26 9.5 l-235 221 q-12 11 -12 26.5 q0 15.5 11 26.5 l236 220 q11 11 26 10.5 q15 -0.5 25 -11.5 q10 -11 9.5 -26 q-0.5 -15 -11.5 -25 l-207 -195 l207 -194 q11 -10 11.5 -25 Z" /><glyph glyph-name="upcircle" unicode="&#xe60a;" d="M711 854.5 q-95 40.5 -199 40.5 q-104 0 -199 -40.5 q-95 -40.5 -163 -109 q-68 -68.5 -109 -163 q-41 -94.5 -41 -199 q0 -104.5 41 -199 q41 -94.5 109 -163 q68 -68.5 163 -109 q95 -40.5 199 -40.5 q104 0 199 40.5 q95 40.5 163 109 q68 68.5 109 163 q41 94.5 41 199 q0 104.5 -41 199 q-41 94.5 -109 163 q-68 68.5 -163 109 ZM768.5 303.5 q-0.5 -14.5 -11.5 -25 q-11 -10.5 -25.5 -10 q-14.5 0.5 -24.5 11.5 l-195 208 l-195 -208 q-10 -11 -25 -11.5 q-15 -0.5 -25.5 10 q-10.5 10.5 -11 25 q-0.5 14.5 9.5 25.5 l221 236 q10 11 26 11 q16 0 26 -11 l221 -236 q10 -11 9.5 -25.5 Z" /><glyph glyph-name="downcircle" unicode="&#xe60b;" d="M711 854.5 q-95 40.5 -199 40.5 q-104 0 -199 -40.5 q-95 -40.5 -163 -109 q-68 -68.5 -109 -163 q-41 -94.5 -41 -199 q0 -104.5 41 -199 q41 -94.5 109 -163 q68 -68.5 163 -109 q95 -40.5 199 -40.5 q104 0 199 40.5 q95 40.5 163 109 q68 68.5 109 163 q41 94.5 41 199 q0 104.5 -41 199 q-41 94.5 -109 163 q-68 68.5 -163 109 ZM759 430 l-221 -236 q-10 -11 -26 -11 q-16 0 -26 11 l-221 236 q-10 11 -9.5 25.5 q0.5 14.5 11 25 q10.5 10.5 25.5 10 q15 -0.5 25 -11.5 l195 -208 l195 208 q10 11 24.5 11.5 q14.5 0.5 25.5 -10 q11 -10.5 11.5 -25 q0.5 -14.5 -9.5 -25.5 Z" /><glyph glyph-name="rightcircleo" unicode="&#xe60c;" d="M341 789 q81 34 170.5 34 q89.5 0 171.5 -34 q79 -34 140 -95 q61 -61 94 -139 q35 -82 35 -171.5 q0 -89.5 -35 -171.5 q-33 -78 -94 -139 q-61 -61 -140 -95 q-81 -34 -170.5 -34 q-89.5 0 -171.5 34 q-79 34 -140 95 q-61 61 -94 139 q-35 82 -35 171.5 q0 89.5 35 171.5 q33 78 94 139 q61 61 140 95 ZM512 895 q-104 0 -199 -40.5 q-95 -40.5 -163 -109 q-68 -68.5 -109 -163 q-41 -94.5 -41 -199 q0 -104.5 41 -199 q41 -94.5 109 -163 q68 -68.5 163 -109 q95 -40.5 199 -40.5 q104 0 199 40.5 q95 40.5 163 109 q68 68.5 109 163 q41 94.5 41 199 q0 104.5 -41 199 q-41 94.5 -109 163 q-68 68.5 -163 109 q-95 40.5 -199 40.5 l0 0 ZM681 411 l-235 220 q-11 11 -26 10.5 q-15 -0.5 -25 -11.5 q-10 -11 -9.5 -26 q0.5 -15 11.5 -25 l207 -195 l-207 -194 q-11 -10 -11.5 -25 q-0.5 -15 9.5 -26 q10 -11 25 -11.5 q15 -0.5 26 9.5 l235 221 q12 11 12 26.5 q0 15.5 -12 26.5 Z" /><glyph glyph-name="leftcircleo" unicode="&#xe60d;" d="M341 789 q81 34 170.5 34 q89.5 0 171.5 -34 q79 -34 140 -95 q61 -61 94 -139 q35 -82 35 -171.5 q0 -89.5 -35 -171.5 q-33 -78 -94 -139 q-61 -61 -140 -95 q-81 -34 -170.5 -34 q-89.5 0 -171.5 34 q-79 34 -140 95 q-61 61 -94 139 q-35 82 -35 171.5 q0 89.5 35 171.5 q33 78 94 139 q61 61 140 95 ZM512 895 q-104 0 -199 -40.5 q-95 -40.5 -163 -109 q-68 -68.5 -109 -163 q-41 -94.5 -41 -199 q0 -104.5 41 -199 q41 -94.5 109 -163 q68 -68.5 163 -109 q95 -40.5 199 -40.5 q104 0 199 40.5 q95 40.5 163 109 q68 68.5 109 163 q41 94.5 41 199 q0 104.5 -41 199 q-41 94.5 -109 163 q-68 68.5 -163 109 q-95 40.5 -199 40.5 l0 0 ZM342 411 q-11 -11 -11 -26.5 q0 -15.5 12 -26.5 l235 -221 q11 -10 26 -9.5 q15 0.5 25 11.5 q10 11 9.5 26 q-0.5 15 -11.5 25 l-207 194 l207 195 q11 10 11.5 25 q0.5 15 -9.5 26 q-10 11 -25 11.5 q-15 0.5 -26 -10.5 l-236 -220 Z" /><glyph glyph-name="upcircleo" unicode="&#xe60e;" d="M341 789 q81 34 170.5 34 q89.5 0 171.5 -34 q79 -34 140 -95 q61 -61 94 -139 q35 -82 35 -171.5 q0 -89.5 -35 -171.5 q-33 -78 -94 -139 q-61 -61 -140 -95 q-81 -34 -170.5 -34 q-89.5 0 -171.5 34 q-79 34 -140 95 q-61 61 -94 139 q-35 82 -35 171.5 q0 89.5 35 171.5 q33 78 94 139 q61 61 140 95 ZM512 895 q-104 0 -199 -40.5 q-95 -40.5 -163 -109 q-68 -68.5 -109 -163 q-41 -94.5 -41 -199 q0 -104.5 41 -199 q41 -94.5 109 -163 q68 -68.5 163 -109 q95 -40.5 199 -40.5 q104 0 199 40.5 q95 40.5 163 109 q68 68.5 109 163 q41 94.5 41 199 q0 104.5 -41 199 q-41 94.5 -109 163 q-68 68.5 -163 109 q-95 40.5 -199 40.5 l0 0 ZM538 565 q-10 11 -26 11 q-16 0 -26 -11 l-221 -236 q-10 -11 -9.5 -25.5 q0.5 -14.5 11 -25 q10.5 -10.5 25.5 -10 q15 0.5 25 11.5 l195 208 l195 -208 q10 -11 24.5 -11.5 q14.5 -0.5 25.5 10 q11 10.5 11.5 25 q0.5 14.5 -9.5 25.5 l-221 236 Z" /><glyph glyph-name="downcircleo" unicode="&#xe60f;" d="M341 789 q81 34 170.5 34 q89.5 0 171.5 -34 q79 -34 140 -95 q61 -61 94 -139 q35 -82 35 -171.5 q0 -89.5 -35 -171.5 q-33 -78 -94 -139 q-61 -61 -140 -95 q-81 -34 -170.5 -34 q-89.5 0 -171.5 34 q-79 34 -140 95 q-61 61 -94 139 q-35 82 -35 171.5 q0 89.5 35 171.5 q33 78 94 139 q61 61 140 95 ZM512 895 q-104 0 -199 -40.5 q-95 -40.5 -163 -109 q-68 -68.5 -109 -163 q-41 -94.5 -41 -199 q0 -104.5 41 -199 q41 -94.5 109 -163 q68 -68.5 163 -109 q95 -40.5 199 -40.5 q104 0 199 40.5 q95 40.5 163 109 q68 68.5 109 163 q41 94.5 41 199 q0 104.5 -41 199 q-41 94.5 -109 163 q-68 68.5 -163 109 q-95 40.5 -199 40.5 l0 0 ZM538 194 q-10 -11 -26 -11 q-16 0 -26 11 l-221 236 q-10 11 -9.5 25.5 q0.5 14.5 11 25 q10.5 10.5 25.5 10 q15 -0.5 25 -11.5 l195 -208 l195 208 q10 11 24.5 11.5 q14.5 0.5 25.5 -10 q11 -10.5 11.5 -25 q0.5 -14.5 -9.5 -25.5 l-221 -236 Z" /><glyph glyph-name="verticleleft" unicode="&#xe610;" d="M273 78 l382 307 l-380 305 q-14 11 -16 29 q-2 18 9.5 32 q11.5 14 29.5 16 q18 2 32 -9 l358 -288 l0 262 q0 15 10.5 25.5 q10.5 10.5 25.5 10.5 l8 0 q15 0 25.5 -10.5 q10.5 -10.5 10.5 -25.5 l0 -696 q0 -15 -10.5 -25.5 q-10.5 -10.5 -25.5 -10.5 l-8 0 q-15 0 -25.5 10.5 q-10.5 10.5 -10.5 25.5 l0 264 l-360 -290 q-12 -10 -27 -10 q-21 0 -35 17 q-11 14 -9 32 q2 18 16 29 Z" /><glyph glyph-name="verticleright" unicode="&#xe611;" d="M752 78 l-382 307 l380 305 q14 11 16 29 q2 18 -9.5 32 q-11.5 14 -29.5 16 q-18 2 -32 -9 l-358 -288 l0 262 q0 15 -10.5 25.5 q-10.5 10.5 -25.5 10.5 l-8 0 q-15 0 -25.5 -10.5 q-10.5 -10.5 -10.5 -25.5 l0 -696 q0 -15 10.5 -25.5 q10.5 -10.5 25.5 -10.5 l8 0 q15 0 25.5 10.5 q10.5 10.5 10.5 25.5 l0 264 l360 -290 q12 -10 27 -10 q21 0 34 17 q12 14 10 32 q-2 18 -16 29 Z" /><glyph glyph-name="rollback" unicode="&#xe612;" d="M900 258 q0 125 -88.5 213.5 q-88.5 88.5 -213.5 88.5 l-336 0 l114 114 q12 12 12 28.5 q0 16.5 -12 28 q-12 11.5 -28.5 11.5 q-16.5 0 -28.5 -12 l-183 -183 q-12 -12 -12 -28.5 q0 -16.5 12 -28.5 l178 -178 q12 -12 28.5 -12 q16.5 0 28 11.5 q11.5 11.5 11.5 28 q0 16.5 -11 28.5 l-113 112 l340 0 q92 0 157 -65 q65 -65 65 -157 l0 -192 q0 -17 12 -28.5 q12 -11.5 28.5 -11.5 q16.5 0 28 11.5 q11.5 11.5 11.5 28.5 l0 192 Z" /><glyph glyph-name="retweet" unicode="&#xe613;" d="M366 579 l349 0 l-119 -119 q-11 -11 -11 -26 q0 -15 10.5 -25.5 q10.5 -10.5 25.5 -10.5 q15 0 25 11 l179 178 q11 11 11 25.5 q0 14.5 -11 25.5 l-184 184 q-10 10 -25 10 q-15 0 -25.5 -10.5 q-10.5 -10.5 -10.5 -25.5 q0 -15 10 -25 l120 -120 l-344 0 q-124 0 -211.5 -87.5 q-87.5 -87.5 -87.5 -211.5 q0 -15 10.5 -25.5 q10.5 -10.5 25.5 -10.5 q15 0 25.5 10.5 q10.5 10.5 10.5 25.5 q0 94 66.5 160.5 q66.5 66.5 160.5 66.5 ZM948.5 444.5 q-10.5 10.5 -25.5 10.5 q-15 0 -25.5 -10.5 q-10.5 -10.5 -10.5 -25.5 q0 -94 -66.5 -160.5 q-66.5 -66.5 -160.5 -66.5 l-349 0 l120 120 q10 10 10 25 q0 15 -10.5 25.5 q-10.5 10.5 -25.5 10.5 q-15 0 -25 -11 l-179 -178 q-10 -11 -10 -25.5 q0 -14.5 10 -25.5 l184 -184 q10 -10 25 -10 q15 0 25.5 10.5 q10.5 10.5 10.5 25.5 q0 15 -10 25 l-120 120 l344 0 q124 0 211.5 87.5 q87.5 87.5 87.5 211.5 q0 15 -10.5 25.5 Z" /><glyph glyph-name="shrink" unicode="&#xe614;" d="M109 247 l211 0 l-232 -232 q-13 -13 -13 -31 q0 -18 13 -31 q13 -13 31 -13 q18 0 31 13 l236 236 l0 -210 q0 -18 13 -31 q13 -13 31 -13 q18 0 31 13 q13 13 13 31 l0 312 q0 19 -13 31.5 q-13 12.5 -31 12.5 l-321 0 q-18 0 -31 -12.5 q-13 -12.5 -13 -31 q0 -18.5 13 -31.5 q13 -13 31 -13 ZM595 431 l321 0 q18 0 31 13 q13 13 13 31 q0 18 -13 31 q-13 13 -31 13 l-211 0 l232 232 q13 13 13 31.5 q0 18.5 -13 31 q-13 12.5 -31 12.5 q-18 0 -31 -12 l-236 -236 l0 209 q0 18 -13 31 q-13 13 -31 13 q-18 0 -31 -13 q-13 -13 -13 -31 l0 -312 q0 -18 13 -31 q13 -13 31 -13 Z" /><glyph glyph-name="arrowsalt" unicode="&#xe615;" d="M430 23 l-211 0 l232 232 q13 13 13 31.5 q0 18.5 -13 31 q-13 12.5 -31 12.5 q-18 0 -31 -12 l-236 -236 l0 209 q0 18 -13 31 q-13 13 -31 13 q-18 0 -31 -13 q-13 -13 -13 -31 l0 -312 q0 -18 13 -31 q13 -13 31 -13 l321 0 q18 0 31 13 q13 13 13 31 q0 18 -13 31 q-13 13 -31 13 ZM916 831 l-321 0 q-18 0 -31 -13 q-13 -13 -13 -31 q0 -18 13 -31 q13 -13 31 -13 l211 0 l-232 -232 q-13 -13 -13 -31 q0 -18 13 -31 q13 -13 31 -13 q18 0 31 13 l236 236 l0 -210 q0 -18 13 -31 q13 -13 31 -13 q18 0 31 13 q13 13 13 31 l0 312 q0 18 -13 31 q-13 13 -31 13 Z" /><glyph glyph-name="doubleright" unicode="&#xe617;" d="M431 17 q-11 14 -9 32 q2 18 16 29 l381 307 l-379 305 q-14 11 -16 29 q-2 18 9 32 q11 14 29 16 q18 2 32 -9 l422 -339 q17 -13 17 -34 q0 -21 -17 -34 l-424 -341 q-12 -10 -27 -10 q-21 0 -34 17 ZM101 17 q-11 14 -9 32 q2 18 16 29 l381 307 l-379 305 q-14 11 -16 29 q-2 18 9 32 q11 14 29 16 q18 2 32 -9 l422 -339 q17 -13 17 -34 q0 -21 -17 -34 l-424 -341 q-12 -10 -27 -10 q-21 0 -34 17 Z" /><glyph glyph-name="doubleleft" unicode="&#xe618;" d="M559 0 q-15 0 -27 10 l-424 341 q-17 13 -17 34 q0 21 17 34 l422 339 q14 11 32 9 q18 -2 29 -16 q11 -14 9 -32 q-2 -18 -16 -29 l-379 -305 l381 -307 q14 -11 16 -29 q2 -18 -9 -32 q-13 -17 -34 -17 ZM889 0 q-15 0 -27 10 l-424 341 q-17 13 -17 34 q0 21 17 34 l422 339 q14 11 32 9 q18 -2 29 -16 q11 -14 9 -32 q-2 -18 -16 -29 l-379 -305 l381 -307 q14 -11 16 -29 q2 -18 -9 -32 q-13 -17 -34 -17 Z" /><glyph glyph-name="arrowdown" unicode="&#xe619;" d="M558 725 l0 -574 l0 0 l208 216 q13 14 31 14 q18 0 31.5 -12.5 q13.5 -12.5 13.5 -30.5 q0 -18 -12 -32 l-284 -294 q-13 -14 -31.5 -14 q-18.5 0 -31.5 14 l-285 296 q-12 13 -12 30 q0 19 14 32 q13 13 31 12.5 q18 -0.5 31 -13.5 l208 -216 l0 0 l0 573 q0 17 12 30 q12 13 29 14 q19 1 33 -12.5 q14 -13.5 14 -32.5 Z" /><glyph glyph-name="arrowup" unicode="&#xe61a;" d="M470 43 l0 574 l0 0 l-208 -216 q-13 -14 -31 -14 q-18 0 -31.5 12.5 q-13.5 12.5 -13.5 30.5 q0 18 12 32 l284 294 q13 14 31.5 14 q18.5 0 31.5 -14 l285 -296 q12 -13 12 -30 q0 -19 -14 -32 q-13 -13 -31 -12.5 q-18 0.5 -31 13.5 l-208 216 l0 0 l0 -573 q0 -17 -12 -30 q-12 -13 -29 -14 q-19 -1 -33 12.5 q-14 13.5 -14 32.5 Z" /><glyph glyph-name="arrowright" unicode="&#xe61b;" d="M173 428 l574 0 l0 0 l-216 208 q-14 13 -14 31 q0 18 12.5 31.5 q12.5 13.5 30.5 13.5 q18 0 32 -12 l294 -284 q14 -13 14 -31.5 q0 -18.5 -14 -31.5 l-296 -285 q-13 -12 -30 -12 q-19 0 -32 14 q-13 13 -12.5 31 q0.5 18 13.5 31 l216 208 l0 0 l-573 0 q-17 0 -30 12 q-13 12 -14 29 q-1 19 12.5 33 q13.5 14 32.5 14 Z" /><glyph glyph-name="arrowleft" unicode="&#xe61c;" d="M855 428 l-574 0 l0 0 l216 208 q14 13 14 31 q0 18 -12.5 31.5 q-12.5 13.5 -30.5 13.5 q-18 0 -32 -12 l-294 -284 q-14 -13 -14 -31.5 q0 -18.5 14 -31.5 l296 -285 q13 -12 30 -12 q19 0 32 14 q13 13 12.5 31 q-0.5 18 -13.5 31 l-216 208 l0 0 l573 0 q17 0 30 12 q13 12 14 29 q1 19 -12.5 33 q-13.5 14 -32.5 14 Z" /><glyph glyph-name="down" unicode="&#xe61d;" d="M896 596 q0 -15 -10 -28 l-341 -423 q-13 -17 -34 -17 q-21 0 -34 17 l-339 422 q-11 14 -9 32 q2 18 16 29 q14 11 32 9 q18 -2 29 -16 l305 -379 l307 381 q11 14 29 16 q18 2 32 -9 q17 -13 17 -34 Z" /><glyph glyph-name="up" unicode="&#xe61e;" d="M896 236 q0 15 -10 28 l-341 423 q-13 17 -34 17 q-21 0 -34 -17 l-339 -422 q-11 -14 -9 -32 q2 -18 16 -29 q14 -11 32 -9 q18 2 29 16 l305 379 l307 -381 q11 -14 29 -16 q18 -2 32 9 q17 13 17 34 Z" /><glyph glyph-name="right" unicode="&#xe61f;" d="M301 0 q15 0 27 10 l424 341 q16 13 16 34 q0 21 -16 34 l-422 339 q-14 11 -32 9 q-18 -2 -29.5 -16 q-11.5 -14 -9.5 -32 q2 -18 16 -29 l380 -305 l-382 -307 q-14 -11 -16 -29 q-2 -18 9 -32 q14 -17 35 -17 Z" /><glyph glyph-name="left" unicode="&#xe620;" d="M724 0 q-15 0 -27 10 l-424 341 q-16 13 -16 34 q0 21 16 34 l422 339 q14 11 32 9 q18 -2 29.5 -16 q11.5 -14 9.5 -32 q-2 -18 -16 -29 l-380 -305 l382 -307 q14 -11 16 -29 q2 -18 -10 -32 q-13 -17 -34 -17 Z" /><glyph glyph-name="minussquareo" unicode="&#xe621;" d="M888 760 l0 0 l0 0 l0 -753 l0 0 l-752 0 l0 0 l0 753 l0 0 l752 0 ZM888 832 l-752 0 q-30 0 -51 -21 q-21 -21 -21 -51 l0 -753 q0 -29 21 -50.5 q21 -21.5 51 -21.5 l753 0 q29 0 50.5 21.5 q21.5 21.5 21.5 50.5 l0 753 q0 30 -21.5 51 q-21.5 21 -51.5 21 l0 0 ZM732 347 l-442 0 q-14 0 -25 10.5 q-11 10.5 -11 25.5 l0 0 q0 15 11 25.5 q11 10.5 25 10.5 l442 0 q14 0 25 -10.5 q11 -10.5 11 -25.5 l0 0 q0 -15 -11 -25.5 q-11 -10.5 -25 -10.5 Z" /><glyph glyph-name="minuscircle" unicode="&#xe622;" d="M769 827.5 q-118 68.5 -257 68.5 q-139 0 -257 -68.5 q-118 -68.5 -186.5 -186.5 q-68.5 -118 -68.5 -257 q0 -139 68.5 -257 q68.5 -118 186.5 -186.5 q118 -68.5 257 -68.5 q139 0 257 68.5 q118 68.5 186.5 186.5 q68.5 118 68.5 257 q0 139 -68.5 257 q-68.5 118 -186.5 186.5 ZM832 384 q0 -15 -10.5 -25.5 q-10.5 -10.5 -25.5 -10.5 l-568 0 q-15 0 -25.5 10.5 q-10.5 10.5 -10.5 25.5 l0 0 q0 15 10.5 25.5 q10.5 10.5 25.5 10.5 l568 0 q15 0 25.5 -10.5 q10.5 -10.5 10.5 -25.5 l0 0 Z" /><glyph glyph-name="minuscircleo" unicode="&#xe623;" d="M769 827.5 q-118 68.5 -257 68.5 q-139 0 -257 -68.5 q-118 -68.5 -186.5 -186.5 q-68.5 -118 -68.5 -257 q0 -139 68.5 -257 q68.5 -118 186.5 -186.5 q118 -68.5 257 -68.5 q139 0 257 68.5 q118 68.5 186.5 186.5 q68.5 118 68.5 257 q0 139 -68.5 257 q-68.5 118 -186.5 186.5 ZM823 73 q-61 -61 -140 -94 q-81 -35 -171 -35 q-90 0 -171 34 q-79 34 -140 95 q-61 61 -94 140 q-35 81 -35 171 q0 90 34 171 q34 79 95 140 q61 61 140 94 q81 35 171 35 q90 0 171 -34 q79 -34 140 -95 q61 -61 94 -140 q35 -81 35 -171 q0 -90 -34 -171 q-34 -79 -95 -140 ZM796 348 l-568 0 q-15 0 -25.5 10.5 q-10.5 10.5 -10.5 25.5 l0 0 q0 15 10.5 25.5 q10.5 10.5 25.5 10.5 l568 0 q15 0 25.5 -10.5 q10.5 -10.5 10.5 -25.5 l0 0 q0 -15 -10.5 -25.5 q-10.5 -10.5 -25.5 -10.5 Z" /><glyph glyph-name="minus" unicode="&#xe624;" d="M796 348 l-568 0 q-15 0 -25.5 10.5 q-10.5 10.5 -10.5 25.5 l0 0 q0 15 10.5 25.5 q10.5 10.5 25.5 10.5 l568 0 q15 0 25.5 -10.5 q10.5 -10.5 10.5 -25.5 l0 0 q0 -15 -10.5 -25.5 q-10.5 -10.5 -25.5 -10.5 Z" /><glyph glyph-name="pluscircleo" unicode="&#xe625;" d="M769 827.5 q-118 68.5 -257 68.5 q-139 0 -257 -68.5 q-118 -68.5 -186.5 -186.5 q-68.5 -118 -68.5 -257 q0 -139 68.5 -257 q68.5 -118 186.5 -186.5 q118 -68.5 257 -68.5 q139 0 257 68.5 q118 68.5 186.5 186.5 q68.5 118 68.5 257 q0 139 -68.5 257 q-68.5 118 -186.5 186.5 ZM823 73 q-61 -61 -140 -94 q-81 -35 -171 -35 q-90 0 -171 34 q-79 34 -140 95 q-61 61 -94 140 q-35 81 -35 171 q0 90 34 171 q34 79 95 140 q61 61 140 94 q81 35 171 35 q90 0 171 -34 q79 -34 140 -95 q61 -61 94 -140 q35 -81 35 -171 q0 -90 -34 -171 q-34 -79 -95 -140 ZM732 420 l-184 0 l0 183 q0 15 -10.5 25.5 q-10.5 10.5 -25.5 10.5 l0 0 q-14 0 -25 -10.5 q-11 -10.5 -11 -25.5 l0 -183 l-184 0 q-15 0 -25.5 -11 q-10.5 -11 -10.5 -25 l0 0 q0 -15 10.5 -25.5 q10.5 -10.5 25.5 -10.5 l184 0 l0 -183 q0 -15 11 -25.5 q11 -10.5 25 -10.5 l0 0 q15 0 25.5 10.5 q10.5 10.5 10.5 25.5 l0 183 l184 0 q15 0 25.5 10.5 q10.5 10.5 10.5 25.5 l0 0 q0 14 -10.5 25 q-10.5 11 -25.5 11 Z" /><glyph glyph-name="pluscircle" unicode="&#xe626;" d="M769 827.5 q-118 68.5 -257 68.5 q-139 0 -257 -68.5 q-118 -68.5 -186.5 -186.5 q-68.5 -118 -68.5 -257 q0 -139 68.5 -257 q68.5 -118 186.5 -186.5 q118 -68.5 257 -68.5 q139 0 257 68.5 q118 68.5 186.5 186.5 q68.5 118 68.5 257 q0 139 -68.5 257 q-68.5 118 -186.5 186.5 ZM768 384 q0 -15 -10.5 -25.5 q-10.5 -10.5 -25.5 -10.5 l-184 0 l0 -183 q0 -15 -10.5 -25.5 q-10.5 -10.5 -25.5 -10.5 l0 0 q-14 0 -25 10.5 q-11 10.5 -11 25.5 l0 183 l-184 0 q-15 0 -25.5 10.5 q-10.5 10.5 -10.5 25.5 l0 0 q0 14 10.5 25 q10.5 11 25.5 11 l184 0 l0 183 q0 15 11 25.5 q11 10.5 25 10.5 l0 0 q15 0 25.5 -10.5 q10.5 -10.5 10.5 -25.5 l0 -183 l184 0 q15 0 25.5 -11 q10.5 -11 10.5 -25 l0 0 Z" /><glyph glyph-name="plus" unicode="&#xe627;" d="M866 420 l-318 0 l0 310 q0 15 -10.5 25.5 q-10.5 10.5 -25.5 10.5 l0 0 q-15 0 -25.5 -10.5 q-10.5 -10.5 -10.5 -25.5 l0 -310 l-312 0 q-14 0 -25 -10.5 q-11 -10.5 -11 -25.5 l0 0 q0 -15 11 -25.5 q11 -10.5 25 -10.5 l312 0 l0 -312 q0 -14 10.5 -25 q10.5 -11 25.5 -11 l0 0 q15 0 25.5 11 q10.5 11 10.5 25 l0 312 l318 0 q15 0 25.5 10.5 q10.5 10.5 10.5 25.5 l0 0 q0 15 -10.5 25.5 q-10.5 10.5 -25.5 10.5 Z" /><glyph glyph-name="infocirlce" unicode="&#xe628;" d="M769 827.5 q-118 68.5 -257 68.5 q-139 0 -257 -68.5 q-118 -68.5 -186.5 -186.5 q-68.5 -118 -68.5 -257 q0 -139 68.5 -257 q68.5 -118 186.5 -186.5 q118 -68.5 257 -68.5 q139 0 257 68.5 q118 68.5 186.5 186.5 q68.5 118 68.5 257 q0 139 -68.5 257 q-68.5 118 -186.5 186.5 ZM483.5 701 q10.5 11 25.5 11 q15 0 25.5 -11 q10.5 -11 10.5 -25.5 q0 -14.5 -10.5 -25 q-10.5 -10.5 -25.5 -10.5 q-15 0 -25.5 10.5 q-10.5 10.5 -10.5 25 q0 14.5 10.5 25.5 ZM666 154 q0 -15 -10.5 -25.5 q-10.5 -10.5 -25.5 -10.5 l-85 0 l-72 0 l-85 0 q-15 0 -25.5 10.5 q-10.5 10.5 -10.5 25.5 l0 0 q0 15 10.5 25.5 q10.5 10.5 25.5 10.5 l85 0 l0 314 l-60 0 q-15 0 -25.5 11 q-10.5 11 -10.5 25 l0 0 q0 15 10.5 25.5 q10.5 10.5 25.5 10.5 l60 0 l36 0 l0 0 q15 0 25.5 -10.5 q10.5 -10.5 10.5 -25.5 l0 -350 l85 0 q15 0 25.5 -10.5 q10.5 -10.5 10.5 -25.5 l0 0 Z" /><glyph glyph-name="infocirlceo" unicode="&#xe629;" d="M769 827.5 q-118 68.5 -257 68.5 q-139 0 -257 -68.5 q-118 -68.5 -186.5 -186.5 q-68.5 -118 -68.5 -257 q0 -139 68.5 -257 q68.5 -118 186.5 -186.5 q118 -68.5 257 -68.5 q139 0 257 68.5 q118 68.5 186.5 186.5 q68.5 118 68.5 257 q0 139 -68.5 257 q-68.5 118 -186.5 186.5 ZM823 73 q-61 -61 -140 -94 q-81 -35 -171 -35 q-90 0 -171 34 q-79 34 -140 95 q-61 61 -94 140 q-35 81 -35 171 q0 90 34 171 q34 79 95 140 q61 61 140 94 q81 35 171 35 q90 0 171 -34 q79 -34 140 -95 q61 -61 94 -140 q35 -81 35 -171 q0 -90 -34 -171 q-34 -79 -95 -140 ZM630 190 l-85 0 l0 350 q0 15 -10.5 25.5 q-10.5 10.5 -25.5 10.5 l0 0 l-36 0 l-60 0 q-15 0 -25.5 -10.5 q-10.5 -10.5 -10.5 -25.5 l0 0 q0 -14 10.5 -25 q10.5 -11 25.5 -11 l60 0 l0 -314 l-85 0 q-15 0 -25.5 -10.5 q-10.5 -10.5 -10.5 -25.5 l0 0 q0 -15 10.5 -25.5 q10.5 -10.5 25.5 -10.5 l85 0 l72 0 l85 0 q15 0 25.5 10.5 q10.5 10.5 10.5 25.5 l0 0 q0 15 -10.5 25.5 q-10.5 10.5 -25.5 10.5 ZM509 676 l0 0 ZM483.5 650.5 q-10.5 10.5 -10.5 25 q0 14.5 10.5 25.5 q10.5 11 25.5 11 q15 0 25.5 -11 q10.5 -11 10.5 -25.5 q0 -14.5 -10.5 -25 q-10.5 -10.5 -25.5 -10.5 q-15 0 -25.5 10.5 Z" /><glyph glyph-name="info" unicode="&#xe62a;" d="M660 136 l-85 0 l0 404 q0 15 -10.5 25.5 q-10.5 10.5 -25.5 10.5 l0 0 l-36 0 l-60 0 q-15 0 -25.5 -10.5 q-10.5 -10.5 -10.5 -25.5 l0 0 q0 -14 10.5 -25 q10.5 -11 25.5 -11 l60 0 l0 -368 l-85 0 q-15 0 -25.5 -10.5 q-10.5 -10.5 -10.5 -25.5 l0 0 q0 -15 10.5 -25.5 q10.5 -10.5 25.5 -10.5 l85 0 l72 0 l85 0 q15 0 25.5 10.5 q10.5 10.5 10.5 25.5 l0 0 q0 15 -10.5 25.5 q-10.5 10.5 -25.5 10.5 ZM539 676 l0 0 ZM513.5 650.5 q-10.5 10.5 -10.5 25 q0 14.5 10.5 25.5 q10.5 11 25.5 11 q15 0 25.5 -11 q10.5 -11 10.5 -25.5 q0 -14.5 -10.5 -25 q-10.5 -10.5 -25.5 -10.5 q-15 0 -25.5 10.5 Z" /><glyph glyph-name="exclamation" unicode="&#xe62b;" d="M540.5 204.5 q-11.5 -11.5 -28.5 -11.5 q-17 0 -28.5 11.5 q-11.5 11.5 -11.5 28.5 l0 495 q0 17 11.5 28.5 q11.5 11.5 28.5 11.5 q17 0 28.5 -11.5 q11.5 -11.5 11.5 -28.5 l0 -495 q0 -17 -11.5 -28.5 ZM512 83 l0 0 ZM480 51 q-13 13 -13 32 q0 19 13 32 q13 13 32 13 q19 0 32 -13 q13 -13 13 -32 q0 -19 -13 -32 q-13 -13 -32 -13 q-19 0 -32 13 Z" /><glyph glyph-name="exclamationcircle" unicode="&#xe62c;" d="M769 827.5 q-118 68.5 -257 68.5 q-139 0 -257 -68.5 q-118 -68.5 -186.5 -186.5 q-68.5 -118 -68.5 -257 q0 -139 68.5 -257 q68.5 -118 186.5 -186.5 q118 -68.5 257 -68.5 q139 0 257 68.5 q118 68.5 186.5 186.5 q68.5 118 68.5 257 q0 139 -68.5 257 q-68.5 118 -186.5 186.5 ZM472 665 q0 17 11.5 28.5 q11.5 11.5 28.5 11.5 q17 0 28.5 -11.5 q11.5 -11.5 11.5 -28.5 l0 -369 q0 -17 -11.5 -28.5 q-11.5 -11.5 -28.5 -11.5 q-17 0 -28.5 11.5 q-11.5 11.5 -11.5 28.5 l0 369 ZM544 115 q-13 -13 -32 -13 q-19 0 -32 13 q-13 13 -13 32 q0 19 13 32 q13 13 32 13 q19 0 32 -13 q13 -13 13 -32 q0 -19 -13 -32 Z" /><glyph glyph-name="exclamationcircleo" unicode="&#xe62d;" d="M341 789 q81 35 171 35 q90 0 171 -34 q79 -34 140 -95 q61 -61 94 -140 q35 -81 35 -171 q0 -90 -34 -171 q-34 -79 -95 -140 q-61 -61 -140 -94 q-81 -35 -171 -35 q-90 0 -171 34 q-79 34 -140 95 q-61 61 -94 140 q-35 81 -35 171 q0 90 34 171 q34 79 95 140 q61 61 140 94 ZM512 896 q-139 0 -257 -68.5 q-118 -68.5 -186.5 -186.5 q-68.5 -118 -68.5 -257 q0 -139 68.5 -257 q68.5 -118 186.5 -186.5 q118 -68.5 257 -68.5 q139 0 257 68.5 q118 68.5 186.5 186.5 q68.5 118 68.5 257 q0 139 -68.5 257 q-68.5 118 -186.5 186.5 q-118 68.5 -257 68.5 l0 0 ZM540.5 267.5 q-11.5 -11.5 -28.5 -11.5 q-17 0 -28.5 11.5 q-11.5 11.5 -11.5 28.5 l0 369 q0 17 11.5 28.5 q11.5 11.5 28.5 11.5 q17 0 28.5 -11.5 q11.5 -11.5 11.5 -28.5 l0 -369 q0 -17 -11.5 -28.5 ZM512 147 l0 0 ZM480 115 q-13 13 -13 32 q0 19 13 32 q13 13 32 13 q19 0 32 -13 q13 -13 13 -32 q0 -19 -13 -32 q-13 -13 -32 -13 q-19 0 -32 13 Z" /><glyph glyph-name="closecircle" unicode="&#xe62e;" d="M769 827.5 q-118 68.5 -257 68.5 q-139 0 -257 -68.5 q-118 -68.5 -186.5 -186.5 q-68.5 -118 -68.5 -257 q0 -139 68.5 -257 q68.5 -118 186.5 -186.5 q118 -68.5 257 -68.5 q139 0 257 68.5 q118 68.5 186.5 186.5 q68.5 118 68.5 257 q0 139 -68.5 257 q-68.5 118 -186.5 186.5 ZM717 229 q11 -10 11 -25 q0 -15 -10.5 -25.5 q-10.5 -10.5 -25.5 -10.5 q-15 0 -26 10 l-154 155 l-154 -155 q-11 -10 -26 -10 q-15 0 -25.5 10.5 q-10.5 10.5 -10.5 25.5 q0 15 11 25 l154 155 l-154 155 q-11 10 -11 25 q0 15 10.5 25.5 q10.5 10.5 25.5 10.5 q15 0 26 -10 l154 -155 l154 155 q11 10 26 10 q15 0 25.5 -10.5 q10.5 -10.5 10.5 -25 q0 -14.5 -11 -25.5 l-154 -155 l154 -155 Z" /><glyph glyph-name="closecircleo" unicode="&#xe62f;" d="M728 564 q0 15 -10.5 25.5 q-10.5 10.5 -25.5 10.5 q-15 0 -26 -10 l-154 -155 l-154 155 q-11 10 -26 10 q-15 0 -25.5 -10.5 q-10.5 -10.5 -10.5 -25.5 q0 -15 11 -25 l154 -155 l-154 -155 q-11 -10 -11 -25 q0 -15 10.5 -25.5 q10.5 -10.5 25.5 -10.5 q15 0 26 10 l154 155 l154 -155 q11 -10 26 -10 q15 0 25.5 10.5 q10.5 10.5 10.5 25 q0 14.5 -11 25.5 l-154 155 l154 155 q11 10 11 25 ZM769 827.5 q-118 68.5 -257 68.5 q-139 0 -257 -68.5 q-118 -68.5 -186.5 -186.5 q-68.5 -118 -68.5 -257 q0 -139 68.5 -257 q68.5 -118 186.5 -186.5 q118 -68.5 257 -68.5 q139 0 257 68.5 q118 68.5 186.5 186.5 q68.5 118 68.5 257 q0 139 -68.5 257 q-68.5 118 -186.5 186.5 ZM823 73 q-61 -61 -140 -94 q-81 -35 -171 -35 q-90 0 -171 34 q-79 34 -140 95 q-61 61 -94 140 q-35 81 -35 171 q0 90 34 171 q34 79 95 140 q61 61 140 94 q81 35 171 35 q90 0 171 -34 q79 -34 140 -95 q61 -61 94 -140 q35 -81 35 -171 q0 -90 -34 -171 q-34 -79 -95 -140 Z" /><glyph glyph-name="checkcircle" unicode="&#xe630;" d="M769 827.5 q-118 68.5 -257 68.5 q-139 0 -257 -68.5 q-118 -68.5 -186.5 -186.5 q-68.5 -118 -68.5 -257 q0 -139 68.5 -257 q68.5 -118 186.5 -186.5 q118 -68.5 257 -68.5 q139 0 257 68.5 q118 68.5 186.5 186.5 q68.5 118 68.5 257 q0 139 -68.5 257 q-68.5 118 -186.5 186.5 ZM772 540 l-359 -361 l0 0 l-1 -1 q-3 -3 -8 -6 q-8 -5 -18 -5 q-21 0 -31 18 l-109 191 q-8 13 -4 27 q4 14 17 21.5 q13 7.5 27.5 3.5 q14.5 -4 21.5 -17 l86 -149 l327 328 q11 11 26 11 q15 0 25.5 -10.5 q10.5 -10.5 10.5 -25.5 q0 -15 -11 -25 Z" /><glyph glyph-name="checkcircleo" unicode="&#xe631;" d="M721 590 l-327 -328 l-86 149 q-7 13 -21.5 17 q-14.5 4 -27.5 -3.5 q-13 -7.5 -17 -21.5 q-4 -14 4 -27 l109 -191 q10 -18 31 -18 q10 0 18 5 q5 3 8 6 q1 1 1 1 l359 360 q11 11 11 26 q0 15 -10.5 25.5 q-10.5 10.5 -25.5 10.5 q-15 0 -26 -11 ZM769 827.5 q-118 68.5 -257 68.5 q-139 0 -257 -68.5 q-118 -68.5 -186.5 -186.5 q-68.5 -118 -68.5 -257 q0 -139 68.5 -257 q68.5 -118 186.5 -186.5 q118 -68.5 257 -68.5 q139 0 257 68.5 q118 68.5 186.5 186.5 q68.5 118 68.5 257 q0 139 -68.5 257 q-68.5 118 -186.5 186.5 ZM823 73 q-61 -61 -140 -94 q-81 -35 -171 -35 q-90 0 -171 34 q-79 34 -140 95 q-61 61 -94 140 q-35 81 -35 171 q0 90 34 171 q34 79 95 140 q61 61 140 94 q81 35 171 35 q90 0 171 -34 q79 -34 140 -95 q61 -61 94 -140 q35 -81 35 -171 q0 -90 -34 -171 q-34 -79 -95 -140 Z" /><glyph glyph-name="check" unicode="&#xe632;" d="M328 96 q-3 0 -5 1 q-20 2 -30 20 l-159 278 q-8 15 -4 31 q4 16 18.5 24 q14.5 8 30.5 3.5 q16 -4.5 25 -18.5 l133 -233 l491 492 q11 12 28 12 q17 0 28.5 -11.5 q11.5 -11.5 11.5 -28.5 q0 -17 -12 -28 l-526 -528 l-2 -2 q-11 -12 -28 -12 Z" /><glyph glyph-name="close" unicode="&#xe633;" d="M568 381 l254 255 q12 11 12 27.5 q0 16.5 -11.5 28 q-11.5 11.5 -28 11.5 q-16.5 0 -27.5 -12 l-255 -254 l-255 254 q-11 12 -27.5 12 q-16.5 0 -28 -11.5 q-11.5 -11.5 -11.5 -28 q0 -16.5 12 -27.5 l254 -255 l-254 -255 q-12 -11 -12 -27.5 q0 -16.5 11.5 -28 q11.5 -11.5 28 -11.5 q16.5 0 27.5 12 l255 255 l255 -255 q11 -12 27.5 -12 q16.5 0 28 11.5 q11.5 11.5 11.5 28 q0 16.5 -12 27.5 l-254 255 Z" /><glyph glyph-name="customerservice" unicode="&#xe634;" d="M838 579 q-6 26 -18 52 q-25 59 -72 105 q-46 45 -107 70 q-63 26 -131 26 q-68 0 -131 -26 q-60 -25 -107 -70.5 q-47 -45.5 -72 -104.5 q-11 -25 -18 -53 q-24 -8 -45 -23 q-22 -16 -38 -38 q-35 -47 -35 -106 q0 -72 51 -123 q37 -37 87 -48 q4 -1 8 -1 q15 0 25 11 q10 10 10 25 l-1 227 q0 107 77 183 q78 76 188.5 76 q110.5 0 188.5 -76 q78 -76 78 -183 l0 -236 q0 -107 -78 -183 q-31 -31 -71 -50 q1 11 1 22 q-1 46 -34 79 q-33 33 -79 35 l-3 0 q-48 0 -82 -34.5 q-34 -34.5 -34 -82.5 q0 -47 33.5 -81 q33.5 -34 80.5 -35 l0 0 l2 0 l0 0 l2 0 l1 0 l0 0 l0 0 q66 1 126 26 q60 25 107 70.5 q47 45.5 73 104.5 q22 53 26 111 q35 13 62 40 q51 51 51 123 q0 58 -34 104.5 q-34 46.5 -88 63.5 ZM82 355 q1 -3 3 -7 q-2 5 -3 7 ZM92 333 q2 -4 5 -9 q-4 6 -5 9 ZM160 332 q-2 2 -3 3 q1 -1 3 -3 q1 -1 2 -2 q-1 1 -2 2 ZM173 332 q-4 3 -7 6 q-31 31 -31 73 q0 29 14 53 q9 17 24 29 l0 -161 ZM181 316 q-1 0 -2 0.5 q-1 0.5 -1 1.5 q1 -1 3 -2 l0 0 ZM188 571 l0 0 q1 5 4 13 q-2 -7 -4 -13 ZM204 248 q-5 1 -10 2 q9 -2 10 -2 q1 0 2 0 q-1 0 -2 0 ZM210 248 l-1 0 l1 0 l0 0 ZM237 274 l0 1 l-1 227 l1 -227 q0 -1 0 -1 ZM307 756 q7 5 10 7 q-6 -4 -10 -7 ZM382 799 q-30 -13 -58 -31 q28 18 58 31 q1 0 2.5 0.5 q1.5 0.5 2.5 0.5 q-3 0 -5 -1 ZM442 761 q0 0 2 0.5 q2 0.5 3 0.5 q1 0 2 0 q0 0 -7 -1 ZM742 730 q-45 44 -104 69 q-1 0 -2.5 0.5 q-1.5 0.5 -2.5 0.5 q1 0 2.5 -0.5 q1.5 -0.5 2.5 -0.5 q59 -25 104 -69 q3 -3 6 -6 l-6 6 ZM754 718 q4 -4 9 -10 q-5 6 -9 10 ZM765 706 q2 -3 8 -10 q-4 4 -8 10 ZM404 52 l0 0 l0 3 l0 -3 ZM512 161 l3 0 l-3 0 l0 0 ZM557 52.5 q0 -18.5 -12.5 -31.5 q-12.5 -13 -30.5 -14 l-2 0 q-19 0 -32 13.5 q-13 13.5 -13 31.5 q0 19 13 32.5 q13 13.5 32 13.5 q19 0 32 -13.5 q13 -13.5 13 -32 ZM565 44 q0 4 0 8 q0 2 0 3 q0 0 0 -1 q0 -1 0 -2 q0 -4 0 -8 ZM615 19 l1 3 l-1 -3 q1 1 2.5 1.5 q1.5 0.5 2.5 0.5 q-2 -1 -5 -2 ZM742 38 q0 0 -6 -6 q1 1 3.5 3 q2.5 2 2.5 3 q3 3 6 6 q-3 -4 -6 -6 ZM784 266 q0 -7 0 -14 q0 7 0 14 l0 236 q0 4 0 6 q0 -1 0 -3 q0 -2 0 -3 l0 -236 ZM813 140 q-3 -7 -7 -14 q4 7 7 14 q0 1 1 2.5 q1 1.5 1 2.5 q-1 -3 -2 -5 ZM813 628 q-3 7 -7 14 q4 -7 7 -14 q1 -2 3 -7 q-1 3 -3 7 ZM831 572 q0 3 -1 7 q0 -1 0.5 -3 q0.5 -2 0.5 -4 l0 0 ZM839 510 q7 -3 12 -7 q-5 4 -12 7 l0 0 ZM864 332 q-11 -11 -25 -18 l0 0 q14 7 25 18 q0 1 1 1 q0 1 1 1 q-1 0 -1 -1 q-1 0 -1 -1 ZM858 338 q-5 -5 -11 -10 l0 168 q17 -13 27 -30 q15 -25 15 -55 q0 -42 -31 -73 ZM945 460 q-2 6 -2 6 q1 -2 2 -6 ZM935 485 q1 -1 3 -6 q-1 1 -1.5 3.5 q-0.5 2.5 -1.5 2.5 ZM943 356 q0 2 2 7 q-1 -2 -2 -7 Z" /><glyph glyph-name="creditcard" unicode="&#xe635;" d="M952 766 l-880 0 q-30 0 -51 -21 q-21 -21 -21 -51 l0 -120 l0 -96 l0 -405 q0 -29 21 -50.5 q21 -21.5 51 -21.5 l880 0 q30 0 51 21.5 q21 21.5 21 50.5 l0 405 l0 96 l0 120 q0 30 -21 51 q-21 21 -51 21 ZM952 73 l-880 0 l0 405 l880 0 l0 -405 ZM72 574 l0 120 l880 0 l0 -120 l-880 0 ZM237 192 l0 0 q18 0 31 13 q13 13 13 31 l0 0 q0 18 -13 31 q-13 13 -31 13 l0 0 q-18 0 -31 -13 q-13 -13 -13 -31 l0 0 q0 -18 13 -31 q13 -13 31 -13 ZM404 192 l0 0 q18 0 31 13 q13 13 13 31 l0 0 q0 18 -13 31 q-13 13 -31 13 l0 0 q-19 0 -31.5 -13 q-12.5 -13 -12.5 -31 l0 0 q0 -18 12.5 -31 q12.5 -13 31.5 -13 Z" /><glyph glyph-name="codesquareo" unicode="&#xe636;" d="M888 832 l-752 0 q-30 0 -51 -21 q-21 -21 -21 -51 l0 -753 q0 -29 21 -50.5 q21 -21.5 51 -21.5 l753 0 q29 0 50.5 21.5 q21.5 21.5 21.5 50.5 l0 753 q0 30 -21.5 51 q-21.5 21 -51.5 21 ZM888 7 l-752 0 l0 753 l752 0 l0 -753 ZM193 383 q0 -15 10.5 -25.5 q10.5 -10.5 25.5 -10.5 q15 0 25 11 l140 141 q11 10 11 25 q0 15 -10 26 l-141 142 q-10 10 -25 10 q-15 0 -25.5 -10.5 q-10.5 -10.5 -10.5 -25 q0 -14.5 10 -25.5 l115 -117 l-115 -115 q-10 -11 -10 -26 ZM393.5 409.5 q-10.5 -10.5 -10.5 -25.5 q0 -15 10.5 -25.5 q10.5 -10.5 24.5 -10.5 l199 -1 l1 0 q14 0 25 10.5 q11 10.5 11 25.5 q0 15 -11 25.5 q-11 10.5 -25 10.5 l-199 1 l0 0 q-15 0 -25.5 -10.5 Z" /><glyph glyph-name="book" unicode="&#xe637;" d="M822 832 l-259 0 l-72 0 l-121 0 l-72 0 l-94 0 q-29 0 -50.5 -21 q-21.5 -21 -21.5 -51 l0 -753 q0 -29 21.5 -50.5 q21.5 -21.5 50.5 -21.5 l619 0 q29 0 50.5 21.5 q21.5 21.5 21.5 50.5 l0 753 q0 30 -21.5 51 q-21.5 21 -51.5 21 ZM491 760 l0 -209 l-9 8 l-33 34 q-8 7 -18 7 q-10 0 -17 -7 l-44 -44 l0 211 l121 0 ZM298 760 l0 -277 q0 -15 10 -25 q10 -10 25 -10 l0 0 q37 0 63 25 l35 35 l35 -34 q25 -25 60 -26 l1 0 q15 0 25.5 10 q10.5 10 10.5 25 l0 277 l260 0 l0 -624 l-618 0 l0 624 l93 0 ZM204 7 l0 57 l618 0 l0 -57 l-618 0 Z" /><glyph glyph-name="barschart" unicode="&#xe638;" d="M203 730 l0 -696 q0 -15 -10.5 -25.5 q-10.5 -10.5 -25.5 -10.5 l0 0 q-15 0 -25.5 10.5 q-10.5 10.5 -10.5 25.5 l0 696 q0 15 10.5 25.5 q10.5 10.5 25.5 10.5 l0 0 q15 0 25.5 -10.5 q10.5 -10.5 10.5 -25.5 ZM167 70 l694 0 q15 0 25.5 -10.5 q10.5 -10.5 10.5 -25.5 l0 0 q0 -15 -10.5 -25.5 q-10.5 -10.5 -25.5 -10.5 l-694 0 q-15 0 -25.5 10.5 q-10.5 10.5 -10.5 25.5 l0 0 q0 15 10.5 25.5 q10.5 10.5 25.5 10.5 ZM394 537 l0 -371 q0 -15 -10.5 -25.5 q-10.5 -10.5 -25.5 -10.5 l0 0 q-15 0 -25.5 10.5 q-10.5 10.5 -10.5 25.5 l0 371 q0 15 10.5 25.5 q10.5 10.5 25.5 10.5 l0 0 q15 0 25.5 -10.5 q10.5 -10.5 10.5 -25.5 ZM777 667 l0 -501 q0 -15 -10.5 -25.5 q-10.5 -10.5 -25.5 -10.5 l0 0 q-15 0 -25.5 10.5 q-10.5 10.5 -10.5 25.5 l0 501 q0 15 10.5 25.5 q10.5 10.5 25.5 10.5 l0 0 q15 0 25.5 -10.5 q10.5 -10.5 10.5 -25.5 ZM585 411 l0 -245 q0 -15 -10.5 -25.5 q-10.5 -10.5 -25.5 -10.5 l0 0 q-15 0 -25.5 10.5 q-10.5 10.5 -10.5 25.5 l0 245 q0 15 10.5 25.5 q10.5 10.5 25.5 10.5 l0 0 q14 0 25 -10.5 q11 -10.5 11 -25.5 Z" /><glyph glyph-name="bars" unicode="&#xe639;" d="M187 639 l0 0 ZM142.5 594.5 q-18.5 18.5 -18.5 44.5 q0 26 18.5 44.5 q18.5 18.5 44.5 18.5 q26 0 44.5 -18.5 q18.5 -18.5 18.5 -44.5 q0 -26 -18.5 -44.5 q-18.5 -18.5 -44.5 -18.5 q-26 0 -44.5 18.5 ZM856 610 l-498 0 q-15 0 -25.5 10.5 q-10.5 10.5 -10.5 25.5 l0 0 q0 15 10.5 25.5 q10.5 10.5 25.5 10.5 l498 0 q15 0 25.5 -10.5 q10.5 -10.5 10.5 -25.5 l0 0 q0 -15 -10.5 -25.5 q-10.5 -10.5 -25.5 -10.5 ZM187 384 l0 0 ZM142.5 339.5 q-18.5 18.5 -18.5 44.5 q0 26 18.5 44.5 q18.5 18.5 44.5 18.5 q26 0 44.5 -18.5 q18.5 -18.5 18.5 -44.5 q0 -26 -18.5 -44.5 q-18.5 -18.5 -44.5 -18.5 q-26 0 -44.5 18.5 ZM856 355 l-498 0 q-15 0 -25.5 10.5 q-10.5 10.5 -10.5 25.5 l0 0 q0 15 10.5 25.5 q10.5 10.5 25.5 10.5 l498 0 q15 0 25.5 -10.5 q10.5 -10.5 10.5 -25.5 l0 0 q0 -15 -10.5 -25.5 q-10.5 -10.5 -25.5 -10.5 ZM187 129 l0 0 ZM142.5 84.5 q-18.5 18.5 -18.5 44.5 q0 26 18.5 44.5 q18.5 18.5 44.5 18.5 q26 0 44.5 -18.5 q18.5 -18.5 18.5 -44.5 q0 -26 -18.5 -44.5 q-18.5 -18.5 -44.5 -18.5 q-26 0 -44.5 18.5 ZM856 100 l-498 0 q-15 0 -25.5 10.5 q-10.5 10.5 -10.5 25.5 l0 0 q0 15 10.5 25.5 q10.5 10.5 25.5 10.5 l498 0 q15 0 25.5 -10.5 q10.5 -10.5 10.5 -25.5 l0 0 q0 -15 -10.5 -25.5 q-10.5 -10.5 -25.5 -10.5 Z" /><glyph glyph-name="question" unicode="&#xe63a;" d="M644 633 q-61 64 -152 64 q-84 0 -143.5 -59.5 q-59.5 -59.5 -59.5 -143.5 q0 -15 10.5 -25.5 q10.5 -10.5 25.5 -10.5 q15 0 25.5 10.5 q10.5 10.5 10.5 25.5 q0 54 38.5 92.5 q38.5 38.5 92.5 38.5 l1 0 q59 0 99 -42 q35 -37 32 -85 q-1 -18 -4 -29 q-3 -11 -21 -37.5 q-18 -26.5 -54 -62.5 q-43 -43 -66.5 -77 q-23.5 -34 -27.5 -72 q-2 -15 7.5 -26.5 q9.5 -11.5 24.5 -12.5 q3 0 4 0 q14 0 24 9 q10 9 12 23 q3 35 73 105 q61 61 79.5 98 q18.5 37 20.5 78 q5 79 -52 139 ZM486 80 l0 0 ZM455.5 49.5 q-12.5 12.5 -12.5 30.5 q0 18 12.5 30.5 q12.5 12.5 30.5 12.5 q18 0 30.5 -12.5 q12.5 -12.5 12.5 -30.5 q0 -18 -12.5 -30.5 q-12.5 -12.5 -30.5 -12.5 q-18 0 -30.5 12.5 Z" /><glyph glyph-name="questioncircle" unicode="&#xe63b;" d="M769 827.5 q-118 68.5 -257 68.5 q-139 0 -257 -68.5 q-118 -68.5 -186.5 -186.5 q-68.5 -118 -68.5 -257 q0 -139 68.5 -257 q68.5 -118 186.5 -186.5 q118 -68.5 257 -68.5 q139 0 257 68.5 q118 68.5 186.5 186.5 q68.5 118 68.5 257 q0 139 -68.5 257 q-68.5 118 -186.5 186.5 ZM536 96 q-13 -13 -30.5 -13 q-17.5 0 -30.5 13 q-13 13 -13 31 q0 18 13 30.5 q13 12.5 30.5 12.5 q17.5 0 30.5 -12.5 q13 -12.5 13 -30.5 q0 -18 -13 -31 ZM691 505 q-2 -38 -19.5 -70.5 q-17.5 -32.5 -67.5 -83.5 q-59 -58 -61 -87 q-2 -13 -12 -22.5 q-10 -9.5 -24 -9.5 q-1 0 -4 0 q-15 2 -24.5 13.5 q-9.5 11.5 -7.5 26.5 q3 33 23.5 63 q20.5 30 58.5 67 q30 30 45.5 52 q15.5 22 18 31 q2.5 9 2.5 24 q2 39 -26 69 q-33 34 -81 34 l0 0 q-45 0 -76.5 -31.5 q-31.5 -31.5 -31.5 -75.5 q0 -15 -10.5 -25.5 q-10.5 -10.5 -25.5 -10.5 q-15 0 -25.5 10.5 q-10.5 10.5 -10.5 25.5 q0 74 52.5 126.5 q52.5 52.5 126.5 52.5 q80 1 134 -56 q50 -53 46 -123 Z" /><glyph glyph-name="questioncircleo" unicode="&#xe63c;" d="M769 827.5 q-118 68.5 -257 68.5 q-139 0 -257 -68.5 q-118 -68.5 -186.5 -186.5 q-68.5 -118 -68.5 -257 q0 -139 68.5 -257 q68.5 -118 186.5 -186.5 q118 -68.5 257 -68.5 q139 0 257 68.5 q118 68.5 186.5 186.5 q68.5 118 68.5 257 q0 139 -68.5 257 q-68.5 118 -186.5 186.5 ZM823 73 q-61 -61 -140 -94 q-81 -35 -171 -35 q-90 0 -171 34 q-79 34 -140 95 q-61 61 -94 140 q-35 81 -35 171 q0 90 34 171 q34 79 95 140 q61 61 140 94 q81 35 171 35 q90 0 171 -34 q79 -34 140 -95 q61 -61 94 -140 q35 -81 35 -171 q0 -90 -34 -171 q-34 -79 -95 -140 ZM546 372 l0 0 ZM507 232 q-1 0 -4 0 q-15 2 -24.5 13.5 q-9.5 11.5 -7.5 26.5 q3 33 23.5 63 q20.5 30 58.5 67 q30 30 45.5 52 q15.5 22 18 31.5 q2.5 9.5 2.5 23.5 q2 39 -26 69 q-33 35 -81 35 l0 0 q-45 0 -76.5 -32 q-31.5 -32 -31.5 -76 q0 -15 -10.5 -25.5 q-10.5 -10.5 -25.5 -10.5 q-15 0 -25.5 10.5 q-10.5 10.5 -10.5 25.5 q0 74 52.5 126.5 q52.5 52.5 126.5 53.5 q80 0 134 -57 q50 -53 46 -123 q-2 -37 -19.5 -70 q-17.5 -33 -67.5 -84 q-59 -58 -61 -86 q-2 -14 -12 -23.5 q-10 -9.5 -24 -9.5 ZM506 127 l0 0 ZM475 96.5 q-13 12.5 -13 30.5 q0 18 13 30.5 q13 12.5 30.5 12.5 q17.5 0 30.5 -12.5 q13 -12.5 13 -30.5 q0 -18 -13 -30.5 q-13 -12.5 -30.5 -12.5 q-17.5 0 -30.5 12.5 Z" /><glyph glyph-name="pause" unicode="&#xe63d;" d="M326 704 l0 0 q-15 0 -25.5 -11 q-10.5 -11 -10.5 -25 l0 -568 q0 -14 10.5 -25 q10.5 -11 25.5 -11 l0 0 q15 0 25 11 q10 11 9 25 l0 568 q1 14 -9 25 q-10 11 -25 11 ZM698 704 l0 0 q-14 0 -25 -11 q-11 -11 -11 -25 l0 -568 q0 -14 11 -25 q11 -11 25 -11 l0 0 q15 0 25.5 11 q10.5 11 10.5 25 l0 568 q0 14 -10.5 25 q-10.5 11 -25.5 11 Z" /><glyph glyph-name="pausecircle" unicode="&#xe63e;" d="M769 827.5 q-118 68.5 -257 68.5 q-139 0 -257 -68.5 q-118 -68.5 -186.5 -186.5 q-68.5 -118 -68.5 -257 q0 -139 68.5 -257 q68.5 -118 186.5 -186.5 q118 -68.5 257 -68.5 q139 0 257 68.5 q118 68.5 186.5 186.5 q68.5 118 68.5 257 q0 139 -68.5 257 q-68.5 118 -186.5 186.5 ZM393 228 q0 -15 -10.5 -25.5 q-10.5 -10.5 -25.5 -10.5 l0 0 q-15 0 -25.5 10.5 q-10.5 10.5 -10.5 25.5 l0 312 q0 15 10.5 25.5 q10.5 10.5 25.5 10.5 l0 0 q15 0 25.5 -10.5 q10.5 -10.5 10.5 -25.5 l0 -312 ZM703 228 q0 -15 -10.5 -25.5 q-10.5 -10.5 -25.5 -10.5 l0 0 q-15 0 -25.5 10.5 q-10.5 10.5 -10.5 25.5 l0 312 q0 15 10.5 25.5 q10.5 10.5 25.5 10.5 l0 0 q15 0 25.5 -10.5 q10.5 -10.5 10.5 -25.5 l0 -312 Z" /><glyph glyph-name="pausecircleo" unicode="&#xe63f;" d="M769 827.5 q-118 68.5 -257 68.5 q-139 0 -257 -68.5 q-118 -68.5 -186.5 -186.5 q-68.5 -118 -68.5 -257 q0 -139 68.5 -257 q68.5 -118 186.5 -186.5 q118 -68.5 257 -68.5 q139 0 257 68.5 q118 68.5 186.5 186.5 q68.5 118 68.5 257 q0 139 -68.5 257 q-68.5 118 -186.5 186.5 ZM823 73 q-61 -61 -140 -94 q-81 -35 -171 -35 q-90 0 -171 34 q-79 34 -140 95 q-61 61 -94 140 q-35 81 -35 171 q0 90 34 171 q34 79 95 140 q61 61 140 94 q81 35 171 35 q90 0 171 -34 q79 -34 140 -95 q61 -61 94 -140 q35 -81 35 -171 q0 -90 -34 -171 q-34 -79 -95 -140 ZM357 576 l0 0 q-15 0 -25.5 -10.5 q-10.5 -10.5 -10.5 -25.5 l0 -312 q0 -15 10.5 -25.5 q10.5 -10.5 25.5 -10.5 l0 0 q15 0 25.5 10.5 q10.5 10.5 10.5 25.5 l0 312 q0 15 -10.5 25.5 q-10.5 10.5 -25.5 10.5 ZM667 576 l0 0 q-15 0 -25.5 -10.5 q-10.5 -10.5 -10.5 -25.5 l0 -312 q0 -15 10.5 -25.5 q10.5 -10.5 25.5 -10.5 l0 0 q15 0 25.5 10.5 q10.5 10.5 10.5 25.5 l0 312 q0 15 -10.5 25.5 q-10.5 10.5 -25.5 10.5 Z" /><glyph glyph-name="clockcircle" unicode="&#xe640;" d="M769 827.5 q-118 68.5 -257 68.5 q-139 0 -257 -68.5 q-118 -68.5 -186.5 -186.5 q-68.5 -118 -68.5 -257 q0 -139 68.5 -257 q68.5 -118 186.5 -186.5 q118 -68.5 257 -68.5 q139 0 257 68.5 q118 68.5 186.5 186.5 q68.5 118 68.5 257 q0 139 -68.5 257 q-68.5 118 -186.5 186.5 ZM769 356 q0 -15 -10.5 -25.5 q-10.5 -10.5 -25.5 -10.5 l-185 0 l0 0 q-30 0 -51 21 q-21 21 -21 51 l0 0 l0 240 q0 15 10.5 25.5 q10.5 10.5 25.5 10.5 l0 0 q15 0 25.5 -10.5 q10.5 -10.5 10.5 -25.5 l0 -240 l185 0 q15 0 25.5 -10.5 q10.5 -10.5 10.5 -25.5 l0 0 Z" /><glyph glyph-name="clockcircleo" unicode="&#xe641;" d="M769 827.5 q-118 68.5 -257 68.5 q-139 0 -257 -68.5 q-118 -68.5 -186.5 -186.5 q-68.5 -118 -68.5 -257 q0 -139 68.5 -257 q68.5 -118 186.5 -186.5 q118 -68.5 257 -68.5 q139 0 257 68.5 q118 68.5 186.5 186.5 q68.5 118 68.5 257 q0 139 -68.5 257 q-68.5 118 -186.5 186.5 ZM823 73 q-61 -61 -140 -94 q-81 -35 -171 -35 q-90 0 -171 34 q-79 34 -140 95 q-61 61 -94 140 q-35 81 -35 171 q0 90 34 171 q34 79 95 140 q61 61 140 94 q81 35 171 35 q90 0 171 -34 q79 -34 140 -95 q61 -61 94 -140 q35 -81 35 -171 q0 -90 -34 -171 q-34 -79 -95 -140 ZM733 392 l-185 0 l0 240 q0 15 -10.5 25.5 q-10.5 10.5 -25.5 10.5 l0 0 q-15 0 -25.5 -10.5 q-10.5 -10.5 -10.5 -25.5 l0 -240 l0 0 q0 -30 21 -51 q21 -21 51 -21 l0 0 l185 0 q15 0 25.5 10.5 q10.5 10.5 10.5 25.5 l0 0 q0 15 -10.5 25.5 q-10.5 10.5 -25.5 10.5 Z" /><glyph glyph-name="swap" unicode="&#xe642;" d="M194 481 q-1 0 -1 0.5 q0 0.5 -0.5 0.5 q-0.5 0 -0.5 0 q0 0 -0.5 0 q-0.5 0 -0.5 0 q0 0 -0.5 0 q-0.5 0 -0.5 0 q0 0 0 0 q0 0 -1 0 q0 0 -0.5 0 q-0.5 0 -0.5 0 q0 0 0 0 q0 0 -0.5 0.5 q-0.5 0.5 -0.5 0.5 q0 0 -0.5 0 q-0.5 0 -0.5 0 q0 0 -0.5 0 q-0.5 0 -0.5 0 q0 0 -1 0 l-1 1 q0 0 0 0 q0 0 0 0 q0 0 -0.5 0 q-0.5 0 -0.5 0 q0 0 -0.5 0.5 q-0.5 0.5 -0.5 0.5 q0 0 -0.5 0 q-0.5 0 -0.5 0 q0 0 -1 0 l0 1 q0 0 -0.5 0 q-0.5 0 -0.5 0 q0 0 -0.5 0.5 q-0.5 0.5 -0.5 0.5 q0 0 -0.5 0 q-0.5 0 -0.5 0 q0 0 0 0.5 q0 0.5 0 0.5 q-1 0 -1 0 q0 0 -1 1 q0 0 0 0 q0 0 -0.5 0.5 q-0.5 0.5 -0.5 0.5 q0 0 -1 0 q-1 2 -2 3 q-1 0 -1 0.5 q0 0.5 0 0.5 q0 0 0 0 q-1 1 -1 1 q0 0 0 1 q-1 0 -1 0 q0 1 0 1 q0 0 0 0 q0 0 -0.5 0.5 q-0.5 0.5 -0.5 0.5 q0 0 0 0 q0 0 0 0.5 q0 0.5 -0.5 0.5 q-0.5 0 -0.5 0 l0 1 q0 0 -0.5 0.5 q-0.5 0.5 -0.5 0.5 l0 1 q0 0 0 0 q0 0 0 0.5 q0 0.5 -0.5 0.5 q-0.5 0 -0.5 0 q0 0 0 0.5 q0 0.5 0 0.5 q0 1 -0.5 1 q-0.5 0 -0.5 0.5 q0 0.5 0 1 q0 0.5 0 0.5 q0 0 0 0 q0 0 0 0 q0 0 0 0.5 q0 0.5 0 0.5 q0 0 0 0.5 q0 0.5 0 0.5 q-1 1 -1 1 q0 0 0 0.5 q0 0.5 0 0.5 q0 0 0 0.5 q0 0.5 0 0.5 q0 0 0 0 q0 0 0 0.5 q0 0.5 0 0.5 q0 0 0 1 q0 0 0 0 q0 1 0 1 q0 2 0 4 q0 0 0 1 q0 0 0 0.5 q0 0.5 0 0.5 q0 0 0 0.5 q0 0.5 0 0.5 q0 0 0 0.5 q0 0.5 0 0.5 q0 0 0 0.5 q0 0.5 0 0.5 q0 0 0 0 q1 1 1 1 q0 0 0 0.5 q0 0.5 0 0.5 q0 0 0 0.5 q0 0.5 0 0.5 q0 0 0 0 q0 0 0 0.5 q0 0.5 0 0.5 q0 0 0 0 q1 1 1 1.5 q0 0.5 0 0.5 q0 0 0 0.5 q0 0.5 0 0.5 q0 0 0.5 0.5 q0.5 0.5 0.5 0.5 q0 0 0 0 q0 0 0 0.5 q0 0.5 0 0.5 q0 0 0.5 0.5 q0.5 0.5 0.5 0.5 q0 0 0 0.5 q0 0.5 0.5 1 q0.5 0.5 0.5 0.5 q0 0 0 0 q0 0 0 0 q0 0 0 0.5 q0 0.5 0.5 0.5 q0.5 0 0.5 0.5 q0 0.5 0 0.5 q0 0 0.5 0.5 q0.5 0.5 0.5 0.5 q0 1 1 1 q0 0 0 0 q0 0 0 1 l1 0 q0 0 0.5 0.5 q0.5 0.5 0.5 0.5 l178 178 q10 11 25 11 q15 0 25 -11 l0 0 q11 -11 11 -25.5 q0 -14.5 -11 -25.5 l-116 -116 l545 0 q15 0 25.5 -10.5 q10.5 -10.5 10.5 -25.5 l0 0 q0 -15 -10.5 -25.5 q-10.5 -10.5 -25.5 -10.5 l-631 0 l0 0 l-2 0 q0 0 -0.5 0 q-0.5 0 -0.5 0 ZM830 287 q1 0 1 -0.5 q0 -0.5 0.5 -0.5 q0.5 0 0.5 0 q0 0 0.5 0 q0.5 0 0.5 0 q0 0 0.5 0 q0.5 0 0.5 0 q0 0 0 0 q0 0 0 0 q1 0 2 0 q0 0 0 0 q0 0 0 0 q0 0 0.5 -0.5 q0.5 -0.5 0.5 -0.5 q0 0 0.5 0 q0.5 0 0.5 0 q0 0 0.5 0 q0.5 0 0.5 0 q0 0 1 0 l0 -1 q1 0 1 0 q0 0 0 0 q0 0 0.5 0 q0.5 0 0.5 0 q0 0 0.5 -0.5 q0.5 -0.5 0.5 -0.5 q0 0 0.5 0 q0.5 0 0.5 0 q0 0 1 0 l0 -1 q0 0 0.5 0 q0.5 0 0.5 0 q0 0 0.5 -0.5 q0.5 -0.5 0.5 -0.5 q0 0 0.5 0 q0.5 0 0.5 0 q0 0 0 -0.5 q0 -0.5 0 -0.5 q1 0 1 0 q0 0 1 -1 q0 0 0.5 -0.5 q0.5 -0.5 0.5 -0.5 q0 0 0 0 q1 0 1 0 q1 -2 2 -3 q1 0 1 -0.5 q0 -0.5 0 -0.5 q0 0 0 0 q1 -1 1 -1 q0 0 0 -1 q1 0 1 0 q0 -1 0 -1 q0 0 0.5 0 q0.5 0 0.5 -0.5 q0 -0.5 0 -0.5 q0 0 0 0 q0 0 0 -0.5 q0 -0.5 0.5 -0.5 q0.5 0 0.5 -0.5 q0 -0.5 0 -0.5 q0 0 0.5 -0.5 q0.5 -0.5 0.5 -0.5 q0 0 0 -0.5 q0 -0.5 0 -0.5 q0 0 0 -0.5 q0 -0.5 0.5 -0.5 q0.5 0 0.5 0 q0 0 0 -0.5 q0 -0.5 0 -0.5 q0 -1 0 -1 q0 0 0.5 -0.5 q0.5 -0.5 0.5 -1 q0 -0.5 0 -0.5 q0 0 0 0 q0 0 0 -0.5 q0 -0.5 0 -0.5 q0 0 0 0 q0 0 0 -0.5 q0 -0.5 0 -0.5 q1 -1 1 -1 q0 0 0 -0.5 q0 -0.5 0 -0.5 q0 0 0 -0.5 q0 -0.5 0 -0.5 q0 0 0 0 q0 0 0 -0.5 q0 -0.5 0 -0.5 q0 0 0 -1 q0 0 0 0 q0 -1 0 -1 q0 -2 0 -4 q0 -1 0 -1 q0 0 0 -0.5 q0 -0.5 0 -1 q0 -0.5 0 -0.5 q0 0 0 0 q0 0 0 -0.5 q0 -0.5 0 -0.5 q0 0 0 -0.5 q0 -0.5 0 -0.5 q0 0 0 0 q-1 -1 -1 -1 q0 0 0 -0.5 q0 -0.5 0 -0.5 q0 0 0 -0.5 q0 -0.5 0 -0.5 q0 0 0 0 q0 0 0 -0.5 q0 -0.5 0 -0.5 q0 0 -1 -1 q0 0 0 -0.5 q0 -0.5 0 -0.5 q0 0 0 -0.5 q0 -0.5 0 -0.5 q0 0 -0.5 -0.5 q-0.5 -0.5 -0.5 -0.5 q0 0 0 0 q0 0 0 -0.5 q0 -0.5 0 -0.5 q0 0 -0.5 -0.5 q-0.5 -0.5 -0.5 -0.5 q0 0 0 -0.5 q0 -0.5 -0.5 -1 q-0.5 -0.5 -0.5 -0.5 q0 0 0 0 q0 0 0 0 q0 0 0 -0.5 q0 -0.5 -0.5 -0.5 q-0.5 0 -0.5 -0.5 q0 -0.5 0 -0.5 q0 0 -1 -1 q0 0 0 0 q0 -1 -0.5 -1 q-0.5 0 -0.5 0 q0 0 0 -1 l-1 0 q0 0 -0.5 -0.5 q-0.5 -0.5 -0.5 -1.5 l-177 -177 q-11 -11 -26 -11 q-15 0 -25 11 l0 0 q-11 10 -11 25 q0 15 11 26 l116 116 l-545 0 q-14 0 -25 10.5 q-11 10.5 -11 25.5 l0 0 q0 15 11 25.5 q11 10.5 25 10.5 l632 0 l0 0 l1 0 q1 0 1 0 Z" /><glyph glyph-name="swapleft" unicode="&#xe643;" d="M164 320 q-1 0 -1 0 q0 0 -0.5 0.5 q-0.5 0.5 -0.5 0.5 q0 0 -0.5 0 q-0.5 0 -0.5 0 q0 0 -0.5 0 q-0.5 0 -0.5 0 q0 0 0 0 q0 0 -1 0 q0 0 -1 0 q0 0 0 0 q0 0 0 0 q0 0 -0.5 0.5 q-0.5 0.5 -0.5 0.5 q0 0 -0.5 0 q-0.5 0 -0.5 0 q0 0 -0.5 0 q-0.5 0 -0.5 0 q0 0 -1 0 l-1 1 q0 0 0 0 q0 0 0 0 q0 0 -0.5 0 q-0.5 0 -0.5 0 q0 0 -0.5 0.5 q-0.5 0.5 -0.5 0.5 q0 0 -0.5 0 q-0.5 0 -0.5 0 q0 0 -1 0 l0 1 q0 0 -0.5 0 q-0.5 0 -0.5 0 q0 0 -0.5 0.5 q-0.5 0.5 -0.5 0.5 q0 0 -0.5 0 q-0.5 0 -0.5 0 q0 0 0 0.5 q0 0.5 0 0.5 q-1 0 -1 0 q0 0 -1 1 q0 0 0 0 q0 0 -0.5 0.5 q-0.5 0.5 -0.5 0.5 q-1 0 -1 0 q-1 2 -2 3 q-1 0 -1 0.5 q0 0.5 0 0.5 q0 0 0 0 q-1 1 -1 1 q0 0 0 1 q-1 0 -1 0 q0 1 0 1 q0 0 0 0 q0 0 -0.5 0.5 q-0.5 0.5 -0.5 0.5 q0 0 0 0 q0 0 0 0.5 q0 0.5 -0.5 0.5 q-0.5 0 -0.5 0 l0 1 q0 0 -0.5 0.5 q-0.5 0.5 -0.5 0.5 l0 1 q0 0 0 0 q0 0 0 0.5 q0 0.5 -0.5 0.5 q-0.5 0 -0.5 0 q0 0 0 0.5 q0 0.5 0 0.5 q0 1 -0.5 1 q-0.5 0 -0.5 0.5 q0 0.5 0 1 q0 0.5 0 0.5 q0 0 0 0 q0 0 0 0.5 q0 0.5 0 0.5 q0 0 0 0 q0 0 0 0.5 q0 0.5 0 0.5 q-1 1 -1 1 q0 0 0 0.5 q0 0.5 0 0.5 q0 0 0 0.5 q0 0.5 0 0.5 q0 0 0 0 q0 0 0 0.5 q0 0.5 0 0.5 q0 0 0 1 q0 0 0 1 q0 0 0 0 q0 2 0 4 q0 0 0 1 q0 0 0 0.5 q0 0.5 0 0.5 q0 0 0 0.5 q0 0.5 0 0.5 q0 0 0 0.5 q0 0.5 0 0.5 q0 0 0 0.5 q0 0.5 0 0.5 q0 0 0 0 q1 1 1 1 q0 0 0 0.5 q0 0.5 0 0.5 q0 0 0 0.5 q0 0.5 0 0.5 q0 0 0 0 q0 0 0 0.5 q0 0.5 0 0.5 q0 0 0 1 q1 0 1 0.5 q0 0.5 0 0.5 q0 0 0 0.5 q0 0.5 0 0.5 q0 0 0.5 0.5 q0.5 0.5 0.5 0.5 q0 0 0 0 q0 0 0 1 l0 0 q0 0 0.5 0.5 q0.5 0.5 0.5 0.5 l0 1 q0 0 0.5 0.5 q0.5 0.5 0.5 0.5 q0 0 0 0 q0 0 0 0 q0 0 0 0.5 q0 0.5 0.5 0.5 q0.5 0 0.5 0.5 q0 0.5 0 0.5 q0 0 0.5 0.5 q0.5 0.5 0.5 0.5 q0 1 0.5 1 q0.5 0 0.5 0 q0 0 0 1 q1 0 1 0 q0 0 0.5 0.5 q0.5 0.5 0.5 1.5 l178 177 q10 11 25 11 q15 0 25 -11 l0 0 q11 -11 11 -25.5 q0 -14.5 -11 -25.5 l-116 -116 l545 0 q15 0 25.5 -10.5 q10.5 -10.5 10.5 -25.5 l0 0 q0 -15 -10.5 -25.5 q-10.5 -10.5 -25.5 -10.5 l-631 0 l0 0 l-2 0 q-1 0 -1 0 Z" /><glyph glyph-name="swapright" unicode="&#xe644;" d="M830 320 q1 0 1 0 q0 0 0.5 0.5 q0.5 0.5 0.5 0.5 q0 0 0.5 0 q0.5 0 0.5 0 q0 0 0.5 0 q0.5 0 0.5 0 q0 0 0 0 q0 0 0 0 q1 0 2 0 q0 0 0 0 q0 0 0 0 q0 0 0.5 0.5 q0.5 0.5 0.5 0.5 q0 0 0.5 0 q0.5 0 0.5 0 q0 0 0.5 0 q0.5 0 0.5 0 q0 0 1 0 l0 1 q1 0 1 0 q0 0 0 0 q0 0 0.5 0 q0.5 0 0.5 0 q0 0 0.5 0.5 q0.5 0.5 0.5 0.5 q0 0 0.5 0 q0.5 0 0.5 0 q0 0 1 0 l0 1 q0 0 0.5 0 q0.5 0 0.5 0 q0 0 0.5 0.5 q0.5 0.5 0.5 0.5 q0 0 0.5 0 q0.5 0 0.5 0 q0 0 0 0.5 q0 0.5 0 0.5 q1 0 1 0 q0 0 1 1 q0 0 0 0.5 q0 0.5 0.5 0.5 q0.5 0 0.5 0 q1 0 1 0 q1 2 2 3 q1 0 1 0.5 q0 0.5 0 0.5 q0 0 0 0 q1 1 1 1 q0 0 0 1 q1 0 1 0 q0 1 0 1 q0 0 0.5 0 q0.5 0 0.5 0.5 q0 0.5 0 0.5 q0 0 0 0 q0 0 0 0.5 q0 0.5 0.5 0.5 q0.5 0 0.5 0.5 q0 0.5 0 0.5 q0 0 0.5 0.5 q0.5 0.5 0.5 0.5 q0 0 0 0.5 q0 0.5 0 0.5 q0 0 0 0.5 q0 0.5 0.5 0.5 q0.5 0 0.5 0 q0 0 0 0.5 q0 0.5 0 0.5 q0 1 0 1 q0 0 0.5 0.5 q0.5 0.5 0.5 1 q0 0.5 0 0.5 q0 0 0 0 q0 0 0 0 q0 0 0 0.5 q0 0.5 0 0.5 q0 0 0 0.5 q0 0.5 0 0.5 q1 1 1 1 q0 0 0 0.5 q0 0.5 0 0.5 q0 0 0 0.5 q0 0.5 0 0.5 q0 0 0 0 q0 0 0 0.5 q0 0.5 0 0.5 q0 0 0 1 q0 0 0 1 q0 0 0 0 q0 2 0 4 q0 1 0 1 q0 0 0 0.5 q0 0.5 0 0.5 q0 0 0 0.5 q0 0.5 0 0.5 q0 0 0 0.5 q0 0.5 0 0.5 q0 0 0 0.5 q0 0.5 0 0.5 q0 0 0 0 q-1 1 -1 1 q0 0 0 0.5 q0 0.5 0 0.5 q0 0 0 0.5 q0 0.5 0 0.5 q0 0 0 0 q0 0 0 0.5 q0 0.5 0 0.5 q0 0 -1 1 q0 0 0 0.5 q0 0.5 0 0.5 q0 0 0 0.5 q0 0.5 0 0.5 q0 0 -0.5 0.5 q-0.5 0.5 -0.5 0.5 q0 0 0 0 q0 0 0 0.5 q0 0.5 0 0.5 q0 0 -0.5 0.5 q-0.5 0.5 -0.5 0.5 q0 0 0 0.5 q0 0.5 -0.5 1 q-0.5 0.5 -0.5 0.5 q0 0 0 0 q0 0 0 0 q0 0 -0.5 0.5 q-0.5 0.5 -0.5 0.5 q0 0 0 0.5 q0 0.5 0 0.5 q0 0 -0.5 0.5 q-0.5 0.5 -0.5 0.5 q0 1 -1 1 q0 0 0 0 q0 0 -0.5 0.5 q-0.5 0.5 -0.5 0.5 q0 0 -0.5 0.5 q-0.5 0.5 -0.5 1.5 l-177 177 q-11 11 -26 11 q-15 0 -25 -11 l0 0 q-11 -10 -11 -25 q0 -15 11 -26 l116 -116 l-545 0 q-14 0 -25 -10.5 q-11 -10.5 -11 -25.5 l0 0 q0 -15 11 -25.5 q11 -10.5 25 -10.5 l632 0 l0 0 l1 0 q0 0 0.5 0 q0.5 0 0.5 0 Z" /><glyph glyph-name="plussquareo" unicode="&#xe645;" d="M888 760 l0 0 l0 0 l0 -753 l0 0 l-752 0 l0 0 l0 753 l0 0 l752 0 ZM888 832 l-752 0 q-30 0 -51 -21 q-21 -21 -21 -51 l0 -753 q0 -29 21 -50.5 q21 -21.5 51 -21.5 l753 0 q29 0 50.5 21.5 q21.5 21.5 21.5 50.5 l0 753 q0 30 -21.5 51 q-21.5 21 -51.5 21 l0 0 ZM732 420 l-184 0 l0 183 q0 15 -10.5 25.5 q-10.5 10.5 -25.5 10.5 l0 0 q-14 0 -25 -10.5 q-11 -10.5 -11 -25.5 l0 -183 l-184 0 q-15 0 -25.5 -11 q-10.5 -11 -10.5 -25 l0 0 q0 -15 10.5 -25.5 q10.5 -10.5 25.5 -10.5 l184 0 l0 -183 q0 -15 11 -25.5 q11 -10.5 25 -10.5 l0 0 q15 0 25.5 10.5 q10.5 10.5 10.5 25.5 l0 183 l184 0 q15 0 25.5 10.5 q10.5 10.5 10.5 25.5 l0 0 q0 14 -10.5 25 q-10.5 11 -25.5 11 Z" /><glyph glyph-name="frown" unicode="&#xe646;" d="M769 827.5 q-118 68.5 -257 68.5 q-139 0 -257 -68.5 q-118 -68.5 -186.5 -186.5 q-68.5 -118 -68.5 -257 q0 -139 68.5 -257 q68.5 -118 186.5 -186.5 q118 -68.5 257 -68.5 q139 0 257 68.5 q118 68.5 186.5 186.5 q68.5 118 68.5 257 q0 139 -68.5 257 q-68.5 118 -186.5 186.5 ZM296.5 471.5 q-17.5 -17.5 -42.5 -17.5 q-25 0 -42.5 17.5 q-17.5 17.5 -17.5 42 q0 24.5 17.5 42.5 q17.5 18 42.5 18 q25 0 42.5 -18 q17.5 -18 17.5 -42.5 q0 -24.5 -17.5 -42 ZM665.5 141 q-10.5 -11 -25.5 -11 q-15 0 -25.5 11 q-10.5 11 -10.5 25 q0 39 -27 66 q-27 27 -65 27 q-38 0 -65 -27 q-27 -27 -27 -66 q0 -14 -10.5 -25 q-10.5 -11 -25.5 -11 q-15 0 -25.5 11 q-10.5 11 -10.5 25 q0 68 48 116.5 q48 48.5 116 48.5 q68 0 116 -48.5 q48 -48.5 48 -116.5 q0 -14 -10.5 -25 ZM812 471.5 q-18 -17.5 -42.5 -17.5 q-24.5 0 -42 17.5 q-17.5 17.5 -17.5 42 q0 24.5 17.5 42.5 q17.5 18 42 18 q24.5 0 42.5 -18 q18 -18 18 -42.5 q0 -24.5 -18 -42 Z" /><glyph glyph-name="menufold" unicode="&#xe658;" d="M97 695 l828 0 q15 0 25.5 10.5 q10.5 10.5 10.5 25.5 q0 15 -10.5 25.5 q-10.5 10.5 -25.5 10.5 l-828 0 q-15 0 -25.5 -10.5 q-10.5 -10.5 -10.5 -25.5 q0 -15 10.5 -25.5 q10.5 -10.5 25.5 -10.5 ZM923 450 l-565 0 q-15 0 -25.5 -10.5 q-10.5 -10.5 -10.5 -25.5 q0 -15 10.5 -25.5 q10.5 -10.5 25.5 -10.5 l565 0 q15 0 25.5 10.5 q10.5 10.5 10.5 25.5 q0 15 -10.5 25.5 q-10.5 10.5 -25.5 10.5 ZM925 72 l-825 0 q-15 0 -25.5 -10.5 q-10.5 -10.5 -10.5 -25.5 q0 -15 10.5 -25.5 q10.5 -10.5 25.5 -10.5 l825 0 q15 0 25.5 10.5 q10.5 10.5 10.5 25.5 q0 15 -10.5 25.5 q-10.5 10.5 -25.5 10.5 ZM195 281 q11 -10 25 -10 q15 0 26 11 q10 10 10 25 q0 15 -10 25 l-96 94 l94 88 q11 11 11.5 26 q0.5 15 -10 25.5 q-10.5 10.5 -25.5 11 q-15 0.5 -25 -9.5 l-121 -114 q-12 -11 -12 -26 q0 -15 11 -26 l122 -120 Z" /><glyph glyph-name="mail" unicode="&#xe659;" d="M886 768 l-753 0 q-30 0 -51 -21 q-21 -21 -21 -51 l0 -626 q0 -30 21 -51 q21 -21 51 -21 l753 0 q30 0 51 21 q21 21 21 51 l0 626 q0 30 -21 51 q-21 21 -51 21 ZM809 696 l-268 -224 l-2 -1 l-1 -2 q-11 -11 -26 -11 l-1 0 q-15 0 -25 11 l-2 1 l-274 226 l599 0 ZM886 70 l-753 0 l0 0 l0 597 l303 -250 q31 -31 76 -31 l0 0 q45 0 76 32 l298 249 l0 -597 l0 0 Z" /><glyph glyph-name="link" unicode="&#xe65b;" d="M542 230 l-179 -179 q-39 -38 -93 -38 q-54 0 -92 38 q-39 39 -39 93 q0 54 39 93 l178 179 q11 10 11 25 q0 15 -10.5 25.5 q-10.5 10.5 -25.5 10.5 q-15 0 -25 -11 l-179 -178 q-60 -60 -60 -144 q0 -84 59.5 -143.5 q59.5 -59.5 143.5 -59.5 q84 0 144 59 l179 179 q10 11 10 26 q0 15 -10.5 25.5 q-10.5 10.5 -25.5 10.5 q-15 0 -25 -11 ZM959 630 q0 84 -59.5 143.5 q-59.5 59.5 -143.5 59.5 q-84 0 -144 -60 l-179 -179 q-10 -10 -10 -25 q0 -15 10.5 -25.5 q10.5 -10.5 25.5 -10.5 q15 0 25 10 l179 179 q39 39 93 39 q54 0 92.5 -38.5 q38.5 -38.5 38.5 -93 q0 -54.5 -39 -92.5 l-178 -179 q-11 -10 -11 -25 q0 -15 10.5 -25.5 q10.5 -10.5 25.5 -10.5 q15 0 26 10 l179 179 q59 60 59 144 ZM486 308 l102 102 q11 10 11 25 q0 15 -10.5 25.5 q-10.5 10.5 -25.5 10.5 q-15 0 -25 -11 l-102 -102 q-11 -10 -11 -25 q0 -15 10.5 -25.5 q10.5 -10.5 25.5 -10.5 q15 0 25 11 Z" /><glyph glyph-name="areachart" unicode="&#xe65c;" d="M923 -64 l-824 0 q-15 0 -25.5 10.5 q-10.5 10.5 -10.5 25.5 l0 825 q0 15 10.5 25.5 q10.5 10.5 25.5 10.5 q15 0 25.5 -10.5 q10.5 -10.5 10.5 -25.5 l0 -789 l788 0 q15 0 25.5 -10.5 q10.5 -10.5 10.5 -25.5 q0 -15 -10.5 -25.5 q-10.5 -10.5 -25.5 -10.5 ZM192 96 l117 209 q4 7 12 9.5 q8 2.5 16 -0.5 l111 -52 l118 171 q11 15 27 7 l110 -56 l160 251 q7 11 19.5 7.5 q12.5 -3.5 12.5 -16.5 l0 -520 q0 -16 -11.5 -27.5 q-11.5 -11.5 -27.5 -11.5 l-646 0 q-11 0 -17 9.5 q-6 9.5 -1 19.5 Z" /><glyph glyph-name="linechart" unicode="&#xe65d;" d="M923 -64 l-824 0 q-15 0 -25.5 10.5 q-10.5 10.5 -10.5 25.5 l0 825 q0 15 10.5 25.5 q10.5 10.5 25.5 10.5 q15 0 25.5 -10.5 q10.5 -10.5 10.5 -25.5 l0 -789 l788 0 q15 0 25.5 -10.5 q10.5 -10.5 10.5 -25.5 q0 -15 -10.5 -25.5 q-10.5 -10.5 -25.5 -10.5 ZM385 153 q-19 0 -30 16 l-157 250 q-8 13 -5 27.5 q3 14.5 15.5 22.5 q12.5 8 27 5 q14.5 -3 22.5 -15 l112 -182 l46 177 q4 16 19 23 l182 88 q13 6 26 2.5 q13 -3.5 21 -15.5 l91 -148 l134 403 q5 14 18 21 q13 7 27 2 q14 -5 21 -18 q7 -13 2 -27 l-158 -477 q-7 -22 -30 -24.5 q-23 -2.5 -35 16.5 l-115 186 l-137 -66 l-62 -240 q-6 -23 -29 -26 q-3 -1 -6 -1 Z" /><glyph glyph-name="home" unicode="&#xe65e;" d="M932 454 l-372 358 q-20 18 -48 18 q-28 0 -48 -18 l-372 -358 q-11 -10 -12 -25 q-1 -15 9 -26 l0 0 q10 -11 25 -12 q15 -1 26 9 l372 358 l372 -358 q11 -10 26 -9 q15 1 25 12 l0 0 q10 11 9 26 q-1 15 -12 25 ZM833 321 l0 0 q-15 0 -25.5 -10.5 q-10.5 -10.5 -10.5 -25.5 l0 -277 l-143 0 l0 240 q0 30 -21 51 q-21 21 -51 21 l-140 0 q-30 0 -51 -21 q-21 -21 -21 -51 l0 -240 l-143 0 l0 277 q0 15 -10.5 25.5 q-10.5 10.5 -25.5 10.5 l0 0 q-15 0 -25.5 -10.5 q-10.5 -10.5 -10.5 -25.5 l0 -277 q0 -30 21 -51 q21 -21 51 -21 l570 0 q30 0 51 21 q21 21 21 51 l0 277 q0 15 -10.5 25.5 q-10.5 10.5 -25.5 10.5 ZM442 248 l140 0 l0 -240 l-140 0 l0 240 Z" /><glyph glyph-name="laptop" unicode="&#xe65f;" d="M887 760 l0 0 l0 0 l0 -559 l0 0 l-752 -1 l0 0 l0 560 l0 0 l752 0 ZM887 832 l-752 0 q-30 0 -51 -21 q-21 -21 -21 -51 l0 -559 q0 -30 21 -51 q21 -21 51 -21 l752 0 q30 0 51 21 q21 21 21 51 l0 559 q0 30 -21 51 q-21 21 -51 21 l0 0 ZM923 -16 l-824 0 q-15 0 -25.5 10.5 q-10.5 10.5 -10.5 25.5 l0 0 q0 15 10.5 25.5 q10.5 10.5 25.5 10.5 l824 0 q15 0 25.5 -10.5 q10.5 -10.5 10.5 -25.5 l0 0 q0 -15 -10.5 -25.5 q-10.5 -10.5 -25.5 -10.5 Z" /><glyph glyph-name="star" unicode="&#xe660;" d="M958.5 450.5 q5.5 23.5 -2.5 47 q-8 23.5 -26.5 39 q-18.5 15.5 -42.5 19.5 l-205 31 l-92 195 q-11 24 -33 37 q-21 13 -45 13 q-24 0 -45 -13 q-22 -13 -33 -37 l-92 -195 l-205 -31 q-24 -4 -42.5 -19.5 q-18.5 -15.5 -26.5 -39 q-8 -23.5 -2.5 -47 q5.5 -23.5 22.5 -41.5 l151 -154 l-36 -218 q-6 -40 20 -70.5 q26 -30.5 66 -30.5 q22 0 42 11 l181 100 l181 -100 q20 -11 42 -11 q40 0 66 30.5 q26 30.5 20 70.5 l-36 218 l151 154 q17 18 22.5 41.5 Z" /><glyph glyph-name="staro" unicode="&#xe661;" d="M499 751 q4 9 13 9 q9 0 13 -9 l105 -222 q3 -7 11 -9 l235 -35 q9 -2 12 -10.5 q3 -8.5 -4 -14.5 l-171 -176 q-5 -5 -4 -12 l41 -247 q1 -7 -3.5 -12 q-4.5 -5 -11.5 -5 q-4 0 -7 2 l-209 115 q-3 2 -7 2 q-4 0 -7 -2 l-209 -115 q-3 -2 -7 -2 q-7 0 -11.5 5 q-4.5 5 -3.5 12 l41 247 q1 7 -4 12 l-171 176 q-7 6 -4 14.5 q3 8.5 12 9.5 l235 36 q8 1 11 9 l105 222 ZM512 832 q-24 0 -45 -13 q-22 -13 -33 -37 l-92 -195 l-205 -31 q-24 -4 -42.5 -19.5 q-18.5 -15.5 -26.5 -39 q-8 -23.5 -2.5 -47 q5.5 -23.5 22.5 -41.5 l151 -154 l-36 -218 q-6 -40 20 -70.5 q26 -30.5 66 -30.5 q22 0 42 11 l181 100 l181 -100 q20 -11 42 -11 q40 0 66 30.5 q26 30.5 20 70.5 l-36 218 l151 154 q17 18 22.5 41.5 q5.5 23.5 -2.5 47 q-8 23.5 -26.5 39 q-18.5 15.5 -42.5 19.5 l-205 31 l-92 195 q-11 24 -33 37 q-21 13 -45 13 l0 0 Z" /><glyph glyph-name="filter" unicode="&#xe663;" d="M895 671.5 q5 24.5 -4.5 48 q-9.5 23.5 -30.5 37 q-21 13.5 -46 13.5 l-602 0 q-25 0 -46 -13.5 q-21 -13.5 -30.5 -37 q-9.5 -23.5 -4.5 -48 q5 -24.5 22 -42.5 l273 -263 l0 -262 q0 -15 11 -25 l125 -129 q10 -11 26 -11 q6 0 13 2 q23 9 23 34 l0 393 l248 261 q18 18 23 42.5 ZM821 680 l-259 -272 q-10 -10 -10 -25 l0 -322 l-54 58 l0 262 q0 15 -10 25 l-284 274 q-5 5 -2 11.5 q3 6.5 10 6.5 l602 0 q7 0 9.5 -6.5 q2.5 -6.5 -2.5 -11.5 Z" /><glyph glyph-name="meho" unicode="&#xe666;" d="M769 827.5 q-118 68.5 -257 68.5 q-139 0 -257 -68.5 q-118 -68.5 -186.5 -186.5 q-68.5 -118 -68.5 -257 q0 -139 68.5 -257 q68.5 -118 186.5 -186.5 q118 -68.5 257 -68.5 q139 0 257 68.5 q118 68.5 186.5 186.5 q68.5 118 68.5 257 q0 139 -68.5 257 q-68.5 118 -186.5 186.5 ZM296.5 471.5 q-17.5 -17.5 -42.5 -17.5 q-25 0 -42.5 17.5 q-17.5 17.5 -17.5 42 q0 24.5 17.5 42.5 q17.5 18 42.5 18 q25 0 42.5 -18 q17.5 -18 17.5 -42.5 q0 -24.5 -17.5 -42 ZM643 118 l-264 0 q-15 0 -25.5 10.5 q-10.5 10.5 -10.5 25.5 q0 15 10.5 25.5 q10.5 10.5 25.5 10.5 l264 0 q15 0 25.5 -10.5 q10.5 -10.5 10.5 -25.5 q0 -15 -10.5 -25.5 q-10.5 -10.5 -25.5 -10.5 ZM812 471.5 q-18 -17.5 -42.5 -17.5 q-24.5 0 -42 17.5 q-17.5 17.5 -17.5 42 q0 24.5 17.5 42.5 q17.5 18 42 18 q24.5 0 42.5 -18 q18 -18 18 -42.5 q0 -24.5 -18 -42 Z" /><glyph glyph-name="meh" unicode="&#xe667;" d="M769 827.5 q-118 68.5 -257 68.5 q-139 0 -257 -68.5 q-118 -68.5 -186.5 -186.5 q-68.5 -118 -68.5 -257 q0 -139 68.5 -257 q68.5 -118 186.5 -186.5 q118 -68.5 257 -68.5 q139 0 257 68.5 q118 68.5 186.5 186.5 q68.5 118 68.5 257 q0 139 -68.5 257 q-68.5 118 -186.5 186.5 ZM823 73 q-61 -61 -140 -94 q-81 -35 -171 -35 q-90 0 -171 34 q-79 34 -140 95 q-61 61 -94 140 q-35 81 -35 171 q0 90 34 171 q34 79 95 140 q61 61 140 94 q81 35 171 35 q90 0 171 -34 q79 -34 140 -95 q61 -61 94 -140 q35 -81 35 -171 q0 -90 -34 -171 q-34 -79 -95 -140 ZM254 514 l0 0 ZM211.5 471.5 q-17.5 17.5 -17.5 42 q0 24.5 17.5 42.5 q17.5 18 42.5 18 q25 0 42.5 -18 q17.5 -18 17.5 -42.5 q0 -24.5 -17.5 -42 q-17.5 -17.5 -42.5 -17.5 q-25 0 -42.5 17.5 ZM770 514 l0 0 ZM727.5 471.5 q-17.5 17.5 -17.5 42 q0 24.5 17.5 42.5 q17.5 18 42 18 q24.5 0 42.5 -18 q18 -18 18 -42.5 q0 -24.5 -18 -42 q-18 -17.5 -42.5 -17.5 q-24.5 0 -42 17.5 ZM643 190 l-264 0 q-15 0 -25.5 -10.5 q-10.5 -10.5 -10.5 -25.5 q0 -15 10.5 -25.5 q10.5 -10.5 25.5 -10.5 l264 0 q15 0 25.5 10.5 q10.5 10.5 10.5 25.5 q0 15 -10.5 25.5 q-10.5 10.5 -25.5 10.5 Z" /><glyph glyph-name="shoppingcart" unicode="&#xe668;" d="M923 194 l-596 0 l30 61 l497 1 q13 0 22.5 8 q9.5 8 11.5 20 l69 386 q3 16 -7.5 28 q-10.5 12 -26.5 12 l-632 3 l-5 25 q-3 12 -13 20 q-10 8 -22 8 l-155 0 q-14 0 -24.5 -10.5 q-10.5 -10.5 -10.5 -25 q0 -14.5 10.5 -25 q10.5 -10.5 24.5 -10.5 l126 0 l24 -112 l58 -281 l-75 -122 q-13 -18 -3 -37 q10 -19 32 -19 l63 0 q-21 -28 -21 -62 q0 -43 30 -73 q30 -30 72.5 -30 q42.5 0 72.5 30 q30 30 30 73 q0 34 -20 62 l161 0 q-21 -28 -21 -62 q0 -43 30 -73 q30 -30 72.5 -30 q42.5 0 72.5 30 q30 30 30 73 q0 34 -20 62 l113 0 q15 0 25 10 q10 10 10 24.5 q0 14.5 -10 25 q-10 10.5 -25 10.5 ZM306 643 l576 -2 l-57 -316 l-452 -1 l-67 319 ZM425 39.5 q-9 -9.5 -22 -9.5 q-13 0 -22.5 9.5 q-9.5 9.5 -9.5 22.5 q0 13 9.5 22.5 q9.5 9.5 22.5 9.5 q13 0 22 -9.5 q9 -9.5 9 -22.5 q0 -13 -9 -22.5 ZM750 39.5 q-9 -9.5 -22 -9.5 q-13 0 -22.5 9.5 q-9.5 9.5 -9.5 22.5 q0 13 9.5 22.5 q9.5 9.5 22.5 9.5 q13 0 22 -9.5 q9 -9.5 9 -22.5 q0 -13 -9 -22.5 Z" /><glyph glyph-name="save" unicode="&#xe669;" d="M650 768 l-450 0 q-30 0 -51 -21 q-21 -21 -21 -51 l0 -623 q0 -30 21 -51 q21 -21 51 -21 l623 0 q30 0 51 21 q21 21 21 51 l0 450 l-245 245 ZM329 696 l217 0 l0 -206 q0 -15 -10.5 -25.5 q-10.5 -10.5 -25.5 -10.5 l-145 0 q-15 0 -25.5 10.5 q-10.5 10.5 -10.5 25.5 l0 206 ZM823 73 l-623 0 l0 623 l57 0 l0 -206 q0 -45 31.5 -76.5 q31.5 -31.5 76.5 -31.5 l145 0 q44 0 76 32 q32 32 32 76 l0 206 l2 0 l203 -203 l0 -420 l0 0 ZM443.5 536.5 q10.5 -10.5 25.5 -10.5 q15 0 25.5 10.5 q10.5 10.5 10.5 25.5 l0 43 q0 15 -10.5 25.5 q-10.5 10.5 -25.5 10.5 q-15 0 -25.5 -10.5 q-10.5 -10.5 -10.5 -25.5 l0 -43 q0 -15 10.5 -25.5 Z" /><glyph glyph-name="user" unicode="&#xe66a;" d="M819 103 q-25 60 -71 106 q-46 46 -106 71 q-20 9 -42 15 q61 20 107 66 q81 81 81 195 q0 114 -81 194.5 q-81 80.5 -195 80.5 q-114 0 -194.5 -80.5 q-80.5 -80.5 -80.5 -194.5 q0 -114 80 -195 q46 -46 107 -66 q-23 -6 -42 -15 q-60 -25 -106 -71 q-46 -46 -71 -106 q-26 -62 -26 -130 q0 -15 10.5 -25.5 q10.5 -10.5 25.5 -10.5 q15 0 25.5 10.5 q10.5 10.5 10.5 25.5 q0 108 76.5 185 q76.5 77 185 77 q108.5 0 185 -76.5 q76.5 -76.5 76.5 -185.5 q0 -15 10.5 -25.5 q10.5 -10.5 25.5 -10.5 q15 0 25.5 10.5 q10.5 10.5 10.5 25.5 q-1 68 -27 130 ZM368.5 412 q-59.5 60 -59.5 144 q0 84 59.5 143.5 q59.5 59.5 143.5 59.5 q84 0 143.5 -59.5 q59.5 -59.5 59.5 -143.5 q0 -84 -59.5 -144 q-59.5 -60 -143.5 -60 q-84 0 -143.5 60 Z" /><glyph glyph-name="videocamera" unicode="&#xe66b;" d="M1010 573 q-11 10 -26 10 q-9 0 -18 -5 l-126 -67 l0 188 q0 29 -20.5 50 q-20.5 21 -50.5 21 l-698 0 q-29 0 -50 -21 q-21 -21 -21 -50 l0 -630 q0 -29 21 -50 q21 -21 50 -21 l698 0 q30 0 50.5 21 q20.5 21 20.5 50 l0 203 l123 -79 q10 -6 22 -6 q13 0 25 9 q14 12 14 31 l0 316 q0 18 -14 30 ZM945 477 l0 -178 l-103 66 l0 57 l103 55 ZM761 667 l0 -566 q0 -10 -6.5 -17 q-6.5 -7 -16.5 -7 l-636 0 q-9 0 -16 7 q-7 7 -7 17 l0 566 q0 10 7 17 q7 7 16 7 l636 0 q10 0 16.5 -7 q6.5 -7 6.5 -17 Z" /><glyph glyph-name="totop" unicode="&#xe66c;" d="M920 74 l-816 0 q-15 0 -25.5 -10.5 q-10.5 -10.5 -10.5 -25.5 q0 -15 10.5 -25.5 q10.5 -10.5 25.5 -10.5 l816 0 q15 0 25.5 10.5 q10.5 10.5 10.5 25.5 q0 15 -10.5 25.5 q-10.5 10.5 -25.5 10.5 ZM340.5 586.5 q10.5 -10.5 25 -10.5 q14.5 0 25.5 10 l85 85 l0 -449 q0 -15 10.5 -25.5 q10.5 -10.5 25.5 -10.5 q15 0 25.5 10.5 q10.5 10.5 10.5 25.5 l0 449 l85 -85 q10 -10 25 -10 q15 0 25.5 10.5 q10.5 10.5 10.5 25.5 q0 15 -10 25 l-146 146 q-11 11 -26 11 q-15 0 -25 -11 l-147 -146 q-10 -11 -10 -25.5 q0 -14.5 10.5 -25 Z" /><glyph glyph-name="team" unicode="&#xe66d;" d="M839 409 q-30 30 -67 47 q44 23 72 64 q35 51 35 113 q0 84 -59 142.5 q-59 58.5 -142 58.5 q-65 0 -117 -36 q-45 -33 -67 -83 q-60 64 -147 64 q-84 0 -143 -59 q-59 -59 -59 -142 q0 -62 35 -113 q28 -41 73 -65 q-38 -17 -68 -47 q-67 -67 -67 -161 l0 -165 q0 -37 26.5 -64 q26.5 -27 64.5 -27 l276 0 q27 0 49.5 15.5 q22.5 15.5 33.5 40.5 l248 0 q37 0 64 26.5 q27 26.5 27 63.5 l0 165 q-1 95 -68 162 ZM548 633 q0 54 38 92 q38 38 92 38 q54 0 92 -38 q38 -38 38 -91.5 q0 -53.5 -38 -92 q-38 -38.5 -92 -38.5 q-54 0 -92 38 q-38 38 -38 92 ZM254 486 q-38 38 -38 92 q0 54 38 92 q38 38 92 38 q54 0 92 -38 q38 -38 38 -92 q0 -54 -38 -92 q-38 -38 -92 -38 q-54 0 -92 38 ZM504 27 q0 -8 -6 -13.5 q-6 -5.5 -14 -5.5 l-276 0 q-8 0 -13.5 5.5 q-5.5 5.5 -5.5 13.5 l0 165 q0 65 46 111 q46 46 111 46 q65 0 112 -46 q1 -1 1 -1 l0 -1 q45 -46 45 -109 l0 -165 ZM486 372 q-21 17 -46 28 q62 33 90 96 q24 -25 54 -40 q-38 -17 -68 -47 q-17 -17 -30 -37 ZM835 82 q0 -8 -5.5 -13.5 q-5.5 -5.5 -13.5 -5.5 l-241 0 l0 129 q0 69 -38 126 q12 23 29 40 q47 47 112 47 q65 0 111 -46.5 q46 -46.5 46 -111.5 l0 -165 Z" /><glyph glyph-name="sharealt" unicode="&#xe671;" d="M814 233 q-38 0 -70.5 -18 q-32.5 -18 -53.5 -49 l-236 168 q6 24 6 48 q0 39 -15 75 l257 130 q45 -51 112 -51 q61 0 104.5 43.5 q43.5 43.5 43.5 104.5 q0 61 -43.5 104.5 q-43.5 43.5 -104.5 43.5 q-61 0 -104.5 -43.5 q-43.5 -43.5 -43.5 -104.5 q0 -17 4 -33 l-264 -133 q-59 62 -144 62 q-82 0 -140 -58 q-58 -58 -58 -140 q0 -82 58 -140 q58 -58 140 -58 q49 0 91.5 22.5 q42.5 22.5 69.5 60.5 l243 -172 q0 -5 0 -10 q0 -61 43.5 -104.5 q43.5 -43.5 104.5 -43.5 q61 0 104.5 43.5 q43.5 43.5 43.5 104.5 q0 61 -43.5 104.5 q-43.5 43.5 -104.5 43.5 ZM760.5 737.5 q22.5 22.5 53.5 22.5 q31 0 53.5 -22.5 q22.5 -22.5 22.5 -54 q0 -31.5 -22.5 -53.5 q-22.5 -22 -53.5 -22 q-31 0 -53.5 22 q-22.5 22 -22.5 53.5 q0 31.5 22.5 54 ZM351 293 q-37 -37 -89 -37 q-52 0 -89 37 q-37 37 -37 89 q0 52 37 89 q37 37 89 37 q52 0 89 -37 q37 -37 37 -89 q0 -52 -37 -89 ZM867.5 31 q-22.5 -22 -53.5 -22 q-31 0 -53.5 22 q-22.5 22 -22.5 53.5 q0 31.5 22.5 54 q22.5 22.5 53.5 22.5 q31 0 53.5 -22.5 q22.5 -22.5 22.5 -54 q0 -31.5 -22.5 -53.5 Z" /><glyph glyph-name="setting" unicode="&#xe672;" d="M962 456 l-4 24 l-73 25 q-10 30 -24 58 l34 69 l-14 19 q-43 60 -102 103 l-20 14 l-69 -35 q-28 14 -58 24 l-24 73 l-24 4 q-39 6 -72 6 q-33 0 -72 -6 l-24 -4 l-25 -73 q-30 -10 -57 -24 l-69 35 l-20 -15 q-59 -43 -102 -102 l-14 -20 l34 -69 q-14 -28 -24 -57 l-73 -25 l-4 -24 q-6 -39 -6 -72 q0 -33 6 -72 l4 -24 l73 -25 q10 -30 24 -57 l-34 -69 l14 -20 q22 -30 47 -55 q23 -23 55 -47 l20 -14 l69 34 q28 -14 57 -24 l25 -73 l24 -4 q39 -6 72 -6 q33 0 72 6 l24 4 l25 73 q29 10 57 24 l69 -35 l20 15 q32 23 55 47 q24 23 47 55 l14 20 l-34 69 q14 28 24 58 l73 24 l4 24 q6 39 6 72 q0 33 -6 72 ZM896 385 l0 -1 q0 -19 -2 -42 l-36 -11 l-31 -11 l-10 -32 q-8 -27 -21 -52 l-16 -29 l32 -63 q-14 -17 -28 -31 l0 -1 q-14 -14 -32 -27 l-62 31 l-29 -15 q-26 -13 -54 -22 l-31 -10 l-10 -31 l-12 -35 q-21 -3 -42 -3 q-19 0 -42 3 l-11 35 l-11 31 l-31 10 q-28 9 -53 22 l-29 15 l-30 -15 l-33 -16 q-17 13 -31 28 q-15 14 -28 31 l31 62 l-15 29 q-14 27 -22 53 l-10 32 l-66 22 q-3 21 -3 42 q0 19 3 42 l66 22 l10 31 q8 27 22 53 l15 30 l-15 29 l-16 33 q26 33 59 59 l62 -31 l30 15 q25 14 53 22 l31 10 l10 31 l12 36 q23 2 42 2 q20 0 42 -2 l22 -67 l31 -9 q28 -9 54 -22 l29 -16 l62 32 q33 -27 60 -60 l-32 -62 l15 -29 q14 -26 23 -53 l9 -32 l31 -10 l36 -12 q3 -22 2 -41 ZM635 507 q-51 51 -123 51 q-72 0 -123 -51 q-51 -51 -51 -123 q0 -72 51 -123 q51 -51 123 -51 q72 0 123 51 q51 51 51 123 q0 72 -51 123 ZM614 384 q0 -42 -30 -72 q-30 -30 -72 -30 q-42 0 -72 30 q-30 30 -30 72 q0 42 30 72 q30 30 72.5 30 q42.5 0 72 -30 q29.5 -30 29.5 -72 Z" /><glyph glyph-name="picture" unicode="&#xe674;" d="M886 768 l-752 0 q-30 0 -51 -21.5 q-21 -21.5 -21 -50.5 l0 -626 q0 -29 21 -50.5 q21 -21.5 51 -21.5 l752 0 q30 0 51 21.5 q21 21.5 21 50.5 l0 626 q0 30 -21 51 q-21 21 -51 21 ZM886 70 l0 0 l-752 0 l0 0 l0 213 l186 190 l217 -270 q9 -10 22.5 -11.5 q13.5 -1.5 24.5 5.5 l161 109 l141 -67 l0 -169 ZM886 330 l-118 48 q-21 16 -42 2 l-156 -105 l-222 275 q-10 12 -26 12 q-16 0 -27 -11 l-161 -165 l0 310 l0 0 l752 0 l0 0 l0 -366 ZM767.5 592.5 q-29.5 29.5 -71.5 29.5 q-42 0 -71.5 -29.5 q-29.5 -29.5 -29.5 -71.5 q0 -42 29.5 -71.5 q29.5 -29.5 71.5 -29.5 q42 0 71.5 29.5 q29.5 29.5 29.5 71.5 q0 42 -29.5 71.5 ZM716.5 500.5 q-8.5 -8.5 -20.5 -8.5 q-12 0 -20.5 8.5 q-8.5 8.5 -8.5 20.5 q0 12 8.5 20.5 q8.5 8.5 20.5 8.5 q12 0 20.5 -8.5 q8.5 -8.5 8.5 -20.5 q0 -12 -8.5 -20.5 Z" /><glyph glyph-name="phone" unicode="&#xe675;" d="M914 733 q-66 101 -128 101 q-36 0 -64 -28 q-48 -48 -77 -93 q-44 -68 -29 -115 q4 -15 17.5 -31 q13.5 -16 44.5 -47 l0 0 q32 -32 38 -41 q10 -14 -19 -60 q-27 -43 -99 -118 q-61 -58 -99 -85 q-48 -35 -71 -35 q-5 0 -8 2 q-9 7 -41 38 q-32 32 -47.5 45 q-15.5 13 -30.5 17 q-12 4 -25 4 q-43 0 -100 -40 q-40 -27 -82 -70 q-33 -32 -28 -73 q6 -57 100 -119 q78 -50 176 -50 q101 0 210.5 53.5 q109.5 53.5 206.5 151.5 q68 68 117 144 q48 76 70 153 q49 170 -32 296 ZM878 457 q-20 -67 -63 -135 q-43 -69 -106 -132 q-44 -44 -92 -80 q-47 -34 -95 -58 q-47 -22 -93 -34 q-45 -12 -87 -12 q-77 0 -137 39 q-35 23 -52 40 q-16 16 -17 27 q-1 7 8 15 q39 39 72 62 q39 27 60 27 q2 0 3 -1 q5 -2 12 -9 q11 -9 38 -35 q35 -36 49 -46 l2 -1 q21 -14 48 -14 q24 0 52 12 q27 11 61 36 q41 30 106 91 l1 1 l2 2 q76 80 107 129 q16 25 24 47 q7 20 8 37 q2 31 -15 55 q-10 14 -44 48 l-2 2 q-26 26 -35 37 q-7 9 -9 13 q-4 16 21 55 q24 37 67 80 l0 0 q8 8 14 8 q10 0 26 -15 q18 -17 42 -54 q31 -48 38 -106 q6 -62 -14 -131 Z" /><glyph glyph-name="paperclip" unicode="&#xe676;" d="M885 629 q-73 72 -177 72 l0 0 q-49 0 -94 -18 q-46 -18 -82 -53 l-233 -231 q-42 -41 -41.5 -99.5 q0.5 -58.5 42 -100 q41.5 -41.5 100.5 -41.5 l1 0 q59 0 100 41 l205 202 q10 10 10 25 q0 15 -10 25 q-11 10 -25.5 10 q-14.5 0 -25.5 -10 l-204 -202 q-21 -21 -50 -21 l-1 0 q-30 1 -50 21 q-21 21 -21 50.5 q0 29.5 20 49.5 l233 231 q52 50 126 50 l0 0 q74 0 126.5 -51.5 q52.5 -51.5 52.5 -124.5 q0 -73 -52 -124 l-247 -245 q-76 -75 -186 -75 l0 0 q-110 0 -187 76.5 q-77 76.5 -77.5 184.5 q-0.5 108 76.5 184 l319 316 q10 10 10 24.5 q0 14.5 -10 25.5 q-11 10 -25.5 10 q-14.5 0 -25.5 -10 l-319 -316 q-47 -47 -73 -109 q-24 -60 -24 -125 q0 -65 25 -125 q25 -62 73 -110 q48 -47 111 -72 q60 -25 127 -25 l0 0 q66 0 126 24 q63 25 110 72 l248 245 q35 35 54 81 q18 45 18 93 q0 103 -73 175 Z" /><glyph glyph-name="notification" unicode="&#xe677;" d="M922 518 l-57 0 l0 18 q0 20 -14 34.5 q-14 14.5 -34 14.5 l-172 0 q-12 24 -33 24 q-70 0 -145 22.5 q-75 22.5 -132 54.5 q-57 32 -103 63.5 q-46 31.5 -72 54 q-26 22.5 -25 22.5 q-10 6 -22 6 q-19 0 -33 -13.5 q-14 -13.5 -14 -33.5 l0 -801 q0 -20 14 -34 q14 -14 33 -14 q13 0 24 7 q4 6 12.5 15 q8.5 9 35 36 q26.5 27 55.5 52 q29 25 73.5 55 q44.5 30 89 51.5 q44.5 21.5 101 36.5 q56.5 15 111.5 15 q19 0 30 22 l4 0 q2 -74 -25 -171 q-6 -20 1.5 -39.5 q7.5 -19.5 24.5 -31.5 q16 -10 35 -10 q22 0 40 15 q84 69 105 169 q7 34 6 68 q4 5 10 14 q19 29 19 45 l0 23 l57 0 q15 0 25.5 10.5 q10.5 10.5 10.5 25.5 l0 138 q0 15 -10.5 25.5 q-10.5 10.5 -25.5 10.5 ZM584 275 q-92 -6 -186 -46 q-84 -36 -167 -98 q-48 -37 -93 -81 l0 679 q50 -39 104 -73 q83 -51 165 -81 q91 -33 177 -37 l0 -2 q0 -4 0 -7 l0 -253 q0 -1 0 -1 ZM793 291 q-6 -10 -14 -21 q-5 -3 -8 -7 q-11 -13 -8 -30 l0 0 q4 -27 -3 -60 q-13 -62 -59 -109 q29 116 18 202 q-2 14 -12 23 q-10 9 -24 9 l-25 0 l0 30 q0 4 -2 9 l0 176 l137 0 l0 -222 ZM886 380 l-21 0 l0 66 l21 0 l0 -66 Z" /><glyph glyph-name="menuunfold" unicode="&#xe679;" d="M925 695 l-828 0 q-15 0 -25.5 10.5 q-10.5 10.5 -10.5 25.5 q0 15 10.5 25.5 q10.5 10.5 25.5 10.5 l828 0 q15 0 25.5 -10.5 q10.5 -10.5 10.5 -25.5 q0 -15 -10.5 -25.5 q-10.5 -10.5 -25.5 -10.5 ZM99 450 l565 0 q15 0 25.5 -10.5 q10.5 -10.5 10.5 -25.5 q0 -15 -10.5 -25.5 q-10.5 -10.5 -25.5 -10.5 l-565 0 q-15 0 -25.5 10.5 q-10.5 10.5 -10.5 25.5 q0 15 10.5 25.5 q10.5 10.5 25.5 10.5 ZM97 72 l825 0 q15 0 25.5 -10.5 q10.5 -10.5 10.5 -25.5 q0 -15 -10.5 -25.5 q-10.5 -10.5 -25.5 -10.5 l-825 0 q-15 0 -25.5 10.5 q-10.5 10.5 -10.5 25.5 q0 15 10.5 25.5 q10.5 10.5 25.5 10.5 ZM827 281 q-11 -10 -26 -10 q-15 0 -25 11 q-11 10 -11 25 q0 15 11 25 l96 94 l-94 88 q-11 11 -11.5 26 q-0.5 15 9.5 25.5 q10 10.5 25 11 q15 0.5 26 -9.5 l121 -114 q11 -11 11 -26 q0 -15 -11 -26 l-121 -120 Z" /><glyph glyph-name="inbox" unicode="&#xe67a;" d="M885 450 l0 0 l-112 286 q-4 12 -14 19.5 q-10 7.5 -23 7.5 l-455 0 q-13 0 -23 -8 q-10 -8 -14 -20 l-105 -282 l0 -1 l0 0 q-2 -8 -1 -15 q0 -3 0 -5 l0 -366 q0 -25 17.5 -43 q17.5 -18 42.5 -18 l628 0 q25 0 43 18 q18 18 18 43 l0 366 q0 3 -1 4 q1 7 -1 14 ZM589 493 l0 -16 q0 -34 -21.5 -54.5 q-21.5 -20.5 -55.5 -20.5 q-34 0 -55 20.5 q-21 20.5 -21 54.5 l-1 16 l-205 0 l79 193 l399 0 l82 -193 l-201 0 ZM214 416 l158 0 q18 -43 55 -67 q37 -24 85 -24 q52 0 90 27 q34 24 51 64 l157 0 l0 -334 l-596 0 l0 334 Z" /><glyph glyph-name="lock" unicode="&#xe67b;" d="M801 596 q-24 60 -67 106 q-43 45 -100 71 q-58 26 -122 26 q-64 0 -122 -26 q-56 -26 -99.5 -71.5 q-43.5 -45.5 -67.5 -105.5 q-25 -61 -25 -128 l0 -436 q0 -26 18 -45 q18 -19 43 -19 l505 0 q26 0 44 19 q18 19 18 45 l0 385 l0 17 l0 34 q0 67 -25 128 ZM414 714 l1 0 l1 1 q45 21 96 21 q50 0 96 -21 q45 -20 80 -57 q35 -37 54 -85 q21 -50 21 -105 l0 -27 l-502 0 l0 0 l0 27 q0 55 20 105 q20 48 55 85 q35 37 78 56 ZM763 377 l0 -345 q0 0 0 -1 l-502 0 q0 1 0 1 l0 345 l502 0 ZM483 235 l0 -83 q0 -12 8.5 -20.5 q8.5 -8.5 20.5 -8.5 q12 0 21 8.5 q9 8.5 9 20.5 l0 83 q24 16 24 46 q0 22 -15.5 38 q-15.5 16 -38 16 q-22.5 0 -38.5 -16 q-16 -16 -16 -38 q0 -30 25 -46 Z" /><glyph glyph-name="qrcode" unicode="&#xe67c;" d="M876 492 l-63 0 l0 -103 l-91 0 l0 103 l-153 0 l0 102 l-51 0 l0 39 l51 0 l0 52 l51 0 l0 63 l-51 0 l0 51 l-166 0 l0 -63 l103 0 l0 -39 l-52 0 l0 -115 l52 0 l0 -90 l-52 0 l0 -52 l-90 0 l0 52 l-63 0 l0 -52 l-39 0 l0 52 l-115 0 l0 -52 l-51 0 l0 -63 l63 0 l0 51 l91 0 l0 -51 l51 0 l0 -102 l63 0 l0 102 l102 0 l0 52 l193 0 l0 -40 l-153 0 l0 -63 l51 0 l0 -102 l114 0 l0 63 l-51 0 l0 39 l205 0 l0 51 l39 0 l0 -51 l63 0 l0 63 l-51 0 l0 103 ZM466 287 l-63 0 l0 -166 l51 0 l0 -39 l-51 0 l0 -63 l103 0 l0 -51 l63 0 l0 51 l51 0 l0 63 l-63 0 l0 -51 l-39 0 l0 90 l102 0 l0 64 l-154 0 l0 102 ZM96 338 l63 0 l0 -63 l-63 0 l0 63 ZM153 531 l154 0 q23 0 40 17 q17 17 17 40 l0 154 q0 23 -17 40 q-17 17 -40 17 l-154 0 q-23 0 -40 -17 q-17 -17 -17 -40 l0 -154 q0 -23 17 -40 q17 -17 40 -17 ZM159 594 l0 142 l142 0 l0 -142 l-142 0 ZM198 697 l64 0 l0 -64 l-64 0 l0 64 ZM870 799 l-154 0 q-23 0 -40 -17 q-17 -17 -17 -40 l0 -154 q0 -23 17 -40 q17 -17 40 -17 l154 0 q24 0 40.5 17 q16.5 17 16.5 40 l0 154 q0 23 -16.5 40 q-16.5 17 -40.5 17 ZM864 736 l0 -142 l-142 0 l0 142 l142 0 ZM762 697 l63 0 l0 -64 l-63 0 l0 64 ZM870 236 l-154 0 q-23 0 -40 -17 q-17 -17 -17 -40 l0 -154 q0 -24 17 -40.5 q17 -16.5 40 -16.5 l154 0 q24 0 40.5 16.5 q16.5 16.5 16.5 40.5 l0 154 q0 23 -16.5 40 q-16.5 17 -40.5 17 ZM864 173 l0 -142 l-142 0 l0 142 l142 0 ZM762 133 l63 0 l0 -63 l-63 0 l0 63 ZM307 236 l-154 0 q-23 0 -40 -17 q-17 -17 -17 -40 l0 -154 q0 -24 17 -40.5 q17 -16.5 40 -16.5 l154 0 q23 0 40 16.5 q17 16.5 17 40.5 l0 154 q0 23 -17 40 q-17 17 -40 17 ZM301 173 l0 -142 l-142 0 l0 142 l142 0 ZM198 133 l64 0 l0 -63 l-64 0 l0 63 Z" /><glyph glyph-name="tags" unicode="&#xe67d;" d="M910 352 l-360 362 q-12 13 -30 13 l-362 0 q-26 0 -44 -18 q-18 -18 -18 -43 l0 -224 q0 -17 12 -30 l359 -354 q18 -18 43.5 -18 q25.5 0 44.5 18 l28 28 l28 -28 q19 -18 44 -18 q25 0 44 18 l210 208 q18 17 18 42.5 q0 25.5 -17 43.5 ZM280 457 q-32 0 -54.5 22.5 q-22.5 22.5 -22.5 54.5 q0 32 22.5 54.5 q22.5 22.5 54.5 22.5 q32 0 54.5 -22.5 q22.5 -22.5 22.5 -54.5 q0 -32 -22.5 -54.5 q-22.5 -22.5 -54.5 -22.5 l0 0 ZM869 306 l-210 -207 q-2 -2 -4 -2 q-2 0 -4 2 l-32 31 l142 140 q16 16 16 39 q0 23 -16 39 l-319 322 l72 0 l355 -358 q1 -1 1 -3 q0 -2 -1 -3 l0 0 ZM869 306 l0 0 ZM280 560 q-11 0 -18.5 -7.5 q-7.5 -7.5 -7.5 -18.5 q0 -11 7.5 -18.5 q7.5 -7.5 18.5 -7.5 q11 0 18.5 7.5 q7.5 7.5 7.5 18.5 q0 11 -7.5 18.5 q-7.5 7.5 -18.5 7.5 l0 0 Z" /><glyph glyph-name="tagso" unicode="&#xe67e;" d="M338.5 593 q-24.5 24 -58.5 24 q-34 0 -58.5 -24 q-24.5 -24 -24.5 -58.5 q0 -34.5 24.5 -59 q24.5 -24.5 58.5 -24.5 q34 0 58.5 24.5 q24.5 24.5 24.5 59 q0 34.5 -24.5 58.5 ZM294 520 q-6 -6 -14 -6 q-8 0 -14 6 q-6 6 -6 14 q0 8 6 14 q6 6 14 6 q8 0 14 -6 q6 -6 6 -14 q0 -8 -6 -14 ZM910 352 l-360 362 q-12 13 -30 13 l-362 0 q-26 0 -44 -18 q-18 -18 -18 -43 l0 -224 q0 -17 12 -30 l359 -354 q18 -18 43.5 -18 q25.5 0 44.5 18 l28 28 l28 -28 q19 -18 44 -18 q25 0 44 18 l210 208 q18 17 18 42.5 q0 25.5 -17 43.5 ZM765 266 q18 17 18 42.5 q0 25.5 -18 43.5 l-309 312 l56 0 l351 -355 l-208 -205 l-27 26 l137 136 ZM159 451 l0 213 l209 0 l351 -355 l-140 -138 l-37 -36 l-31 -31 l-352 347 Z" /><glyph glyph-name="cloudo" unicode="&#xe67f;" d="M702 35 l-404 0 q-48 0 -90.5 17 q-42.5 17 -76.5 50 q-34 34 -52 76 q-18 42 -18 90 q0 83 53 147 q19 23 42 40 q0 38 15 71 q14 33 41 60 l1 1 q27 26 61 39.5 q34 13.5 72 13.5 q12 0 24 -1 q24 26 54 46 q72 48 159 48 q58 0 109 -20 q51 -21 92 -61 q42 -41 63 -90 q14 -34 19 -71 q32 -25 55 -60 l7 -11 l0 -1 q35 -59 35 -128 q0 -52 -19 -99 q-20 -46 -58 -83 q-38 -37 -84 -56 q-47 -18 -100 -18 ZM263 535 q-18 -17 -26 -37 l0 0 q-9 -21 -9 -44 q0 -7 1 -13 l2 -23 l-19 -12 q-24 -14 -43 -37 l0 0 q-36 -44 -36 -101 q0 -33 12 -62 q12 -29 36.5 -52.5 q24.5 -23.5 53.5 -35.5 q29 -11 63 -11 l404 0 q39 0 72.5 13.5 q33.5 13.5 61 40 q27.5 26.5 41.5 59.5 q14 33 14 71 q0 54 -29 98 l-2 4 q-20 29 -49 49 l-14 10 l-2 17 q-2 34 -15 64 q-15 37 -47 67 q-31 31 -68 46 q-38 15 -82 15 q-66 0 -119 -35 q-30 -21 -51 -48 l-15 -19 l-23 6 q-14 4 -30 3 q-24 0 -44.5 -8 q-20.5 -8 -37.5 -25 Z" /><glyph glyph-name="cloud" unicode="&#xe680;" d="M926 411 l0 1 l-1 2 q-26 39 -65 66 q-3 43 -20 82 q-20 48 -59 86 q-39 38 -88 58 q-48 19 -103 19 q-84 0 -152 -45 q-38 -26 -65 -61 q-21 5 -42 5 q-34 0 -64 -12 q-30 -12 -54 -35 q-25 -24 -37 -53 q-13 -30 -13 -64 q0 -10 1 -18 q-31 -19 -56 -49 q-48 -59 -48 -135 q0 -44 16 -83 q16 -39 48 -70 q32 -31 71 -46.5 q39 -15.5 84 -15.5 l440 0 q50 0 94 17 q44 18 79 53 q36 35 54 78 q18 43 18 92 q0 70 -38 128 Z" /><glyph glyph-name="cloudupload" unicode="&#xe681;" d="M926 411 l0 1 l-1 2 q-26 39 -65 66 q-3 43 -20 82 q-20 48 -59 86 q-39 38 -88 58 q-48 19 -103 19 q-84 0 -152 -45 q-38 -26 -65 -61 q-21 5 -42 5 q-34 0 -64 -12 q-30 -12 -54 -35 q-25 -24 -37 -53 q-13 -30 -13 -64 q0 -10 1 -18 q-31 -19 -56 -49 q-48 -59 -48 -135 q0 -44 16 -83 q16 -39 48 -70 q32 -31 71 -46.5 q39 -15.5 84 -15.5 l440 0 q50 0 94 17 q44 18 79 53 q36 35 54 78 q18 43 18 92 q0 70 -38 128 ZM762 393 q0 -15 -10.5 -25.5 q-10.5 -10.5 -25.5 -10.5 q-15 0 -26 11 l-68 68 l0 -246 q0 -15 -10.5 -25.5 q-10.5 -10.5 -25.5 -10.5 q-15 0 -25.5 10.5 q-10.5 10.5 -10.5 25.5 l0 246 l-68 -69 q-11 -10 -25.5 -10 q-14.5 0 -25 10.5 q-10.5 10.5 -10.5 25.5 q0 15 10 25 l130 130 q10 10 25 10 q15 0 25 -10 l130 -130 q11 -10 11 -25 Z" /><glyph glyph-name="clouddownload" unicode="&#xe682;" d="M926 411 l0 1 l-1 2 q-26 39 -65 66 q-3 43 -20 82 q-20 48 -59 86 q-39 38 -88 58 q-48 19 -103 19 q-84 0 -152 -45 q-38 -26 -65 -61 q-21 5 -42 5 q-34 0 -64 -12 q-30 -12 -54 -35 q-25 -24 -37 -53 q-13 -30 -13 -64 q0 -10 1 -18 q-31 -19 -56 -49 q-48 -59 -48 -135 q0 -44 16 -83 q16 -39 48 -70 q32 -31 71 -46.5 q39 -15.5 84 -15.5 l440 0 q50 0 94 17 q44 18 79 53 q36 35 54 78 q18 43 18 92 q0 70 -38 128 ZM751 294 l-129 -130 q-11 -10 -26 -10 q-15 0 -25 10 l-130 130 q-10 10 -10 25 q0 15 10.5 25.5 q10.5 10.5 25 10.5 q14.5 0 25.5 -11 l68 -68 l0 246 q0 15 10.5 25.5 q10.5 10.5 25.5 10.5 q15 0 25.5 -10.5 q10.5 -10.5 10.5 -25.5 l0 -246 l69 68 q10 11 25 11 q15 0 25.5 -10.5 q10.5 -10.5 10.5 -25.5 q0 -15 -11 -25 Z" /><glyph glyph-name="clouddownloado" unicode="&#xe683;" d="M926 411 l0 1 l-1 2 q-26 39 -65 66 q-3 43 -20 82 q-20 48 -59 86 q-39 38 -88 58 q-48 19 -103 19 q-84 0 -152 -45 q-38 -26 -65 -61 q-21 5 -42 5 q-34 0 -64 -12 q-30 -12 -54 -35 q-25 -24 -37 -53 q-13 -30 -13 -64 q0 -10 1 -18 q-31 -19 -56 -49 q-48 -59 -48 -135 q0 -44 16 -83 q16 -39 48 -70 q32 -31 71 -46.5 q39 -15.5 84 -15.5 l440 0 q50 0 94 17 q44 18 79 53 q36 35 54 78 q18 43 18 92 q0 70 -38 128 ZM142 203 q-11 25 -11 55 q0 25 8 47 q8 22 24 42 l1 0 q17 22 40 35 l38 22 l-6 43 q-1 5 -1 13 q0 19 7 36 l0 1 q7 16 21 29 q14 13 31 20 q17 7 36 7 q15 0 28 -4 l43 -12 l26 36 q21 27 51 48 q50 33 111 33 q42 0 77 -15 q36 -14 65 -42 q29 -29 43 -63 q13 -29 15 -63 l1 -31 l27 -18 q27 -18 46 -45 l2 -3 q14 -21 21 -43.5 q7 -22.5 7 -47.5 q0 -35 -13 -65 q-13 -30 -38.5 -54.5 q-25.5 -24.5 -55.5 -36.5 q-31 -13 -67 -13 l-440 0 q-31 0 -57 11 q-25 10 -48 31 q-21 21 -31 45 l0 0 l-1 2 ZM441.5 344.5 q10.5 10.5 25 10.5 q14.5 0 25.5 -11 l68 -68 l0 246 q0 15 10.5 25.5 q10.5 10.5 25.5 10.5 q15 0 25.5 -10.5 q10.5 -10.5 10.5 -25.5 l0 -246 l69 68 q10 11 25 11 q15 0 25.5 -10.5 q10.5 -10.5 10.5 -25.5 q0 -15 -11 -25 l-129 -130 q-11 -10 -26 -10 q-15 0 -25 10 l-130 130 q-10 10 -10 25 q0 15 10.5 25.5 Z" /><glyph glyph-name="clouduploado" unicode="&#xe684;" d="M926 411 l0 1 l-1 2 q-26 39 -65 66 q-3 43 -20 82 q-20 48 -59 86 q-39 38 -88 58 q-48 19 -103 19 q-84 0 -152 -45 q-38 -26 -65 -61 q-21 5 -42 5 q-34 0 -64 -12 q-30 -12 -54 -35 q-25 -24 -37 -53 q-13 -30 -13 -64 q0 -10 1 -18 q-31 -19 -56 -49 q-48 -59 -48 -135 q0 -44 16 -83 q16 -39 48 -70 q32 -31 71 -46.5 q39 -15.5 84 -15.5 l440 0 q50 0 94 17 q44 18 79 53 q36 35 54 78 q18 43 18 92 q0 70 -38 128 ZM142 203 q-11 25 -11 55 q0 25 8 47 q8 22 24 42 l1 0 q17 22 40 35 l38 22 l-6 43 q-1 5 -1 13 q0 19 7 36 l0 1 q7 16 21 29 q14 13 31 20 q17 7 36 7 q15 0 28 -4 l43 -12 l26 36 q21 27 51 48 q50 33 111 33 q42 0 77 -15 q36 -14 65 -42 q29 -29 43 -63 q13 -29 15 -63 l1 -31 l27 -18 q27 -18 46 -45 l2 -3 q14 -21 21 -43.5 q7 -22.5 7 -47.5 q0 -35 -13 -65 q-13 -30 -38.5 -54.5 q-25.5 -24.5 -55.5 -36.5 q-31 -13 -67 -13 l-440 0 q-31 0 -57 11 q-25 10 -48 31 q-21 21 -31 45 l0 0 l-1 2 ZM441.5 367.5 q10.5 -10.5 25 -10.5 q14.5 0 25.5 11 l68 68 l0 -246 q0 -15 10.5 -25.5 q10.5 -10.5 25.5 -10.5 q15 0 25.5 10.5 q10.5 10.5 10.5 25.5 l0 246 l69 -68 q10 -11 25 -11 q15 0 25.5 10.5 q10.5 10.5 10.5 25.5 q0 15 -11 25 l-129 130 q-11 10 -26 10 q-15 0 -25 -10 l-130 -130 q-10 -10 -10 -25 q0 -15 10.5 -25.5 Z" /><glyph glyph-name="enviroment" unicode="&#xe685;" d="M604 553.5 q-38 38.5 -92 38.5 q-54 0 -92 -38.5 q-38 -38.5 -38 -92.5 q0 -54 38 -92 q38 -38 92 -38 q54 0 92 38 q38 38 38 92 q0 54 -38 92.5 ZM871 621 q-31 62 -86 109 q-55 47 -125 74 q-71 26 -148 26 l0 0 q-77 0 -149 -26 q-69 -27 -124 -74 q-55 -47 -86 -109 q-32 -64 -32 -133 q0 -97 47 -197 q39 -83 109 -164 q92 -108 212 -192 q10 -7 22.5 -7 q12.5 0 23.5 7 q120 85 212 192 q70 82 109 164 q47 100 47 197 q0 69 -32 133 ZM714 461.5 q0 -83.5 -59 -142.5 q-59 -59 -143 -59 q-84 0 -143 59 q-59 59 -59 142.5 q0 83.5 59 142.5 q59 59 143 59 q84 0 143 -59 q59 -59 59 -142.5 Z" /><glyph glyph-name="enviromento" unicode="&#xe686;" d="M655 604 q-59 59 -143 59 q-84 0 -143 -59 q-59 -59 -59 -142.5 q0 -83.5 59 -142.5 q59 -59 143 -59 q84 0 143 59 q59 59 59 142.5 q0 83.5 -59 142.5 ZM604 369 q-38 -38 -92 -38 q-54 0 -92 38 q-38 38 -38 92 q0 54 38 92.5 q38 38.5 92 38.5 q54 0 92 -38.5 q38 -38.5 38 -92.5 q0 -54 -38 -92 ZM871 621 q-31 62 -86 109 q-55 47 -125 74 q-71 26 -148 26 l0 0 q-77 0 -149 -26 q-69 -27 -124 -74 q-55 -47 -86 -109 q-32 -64 -32 -133 q0 -97 47 -197 q39 -83 109 -164 q92 -108 212 -192 q10 -7 22.5 -7 q12.5 0 23.5 7 q120 85 212 192 q70 82 109 164 q47 100 47 197 q0 69 -32 133 ZM831 487 q0 -81 -40 -166 q-34 -73 -98 -148 q-77 -90 -181 -166 q-104 76 -181 166 q-63 75 -98 148 q-40 85 -40 167 q0 53 24 102 q25 48 69 86 q45 39 102 61 q60 22 124 22 l0 0 q64 0 124 -22 q57 -22 102 -61 q45 -38 69 -86 q24 -50 24 -103 Z" /><glyph glyph-name="eye" unicode="&#xe687;" d="M584 457 q-30 30 -72 30 q-42 0 -72 -30 q-30 -30 -30 -72 q0 -42 30 -72 q30 -30 72 -30 q42 0 72 30 q30 30 30 72 q0 42 -30 72 ZM963 384 q0 14 -21 62 q-26 65 -61 109 q-57 71 -139 112 q-99 50 -230 50 q-131 0 -231 -50 q-80 -41 -138 -112 q-34 -43 -61 -109 q-21 -48 -21 -62 l0 0 l0 0 l0 0 l0 0 q0 -14 21 -62 q27 -66 61 -109 q57 -71 139 -112 q100 -50 230 -50 q130 0 230 50 q81 41 139 112 q35 44 62 109 q20 48 20 62 l0 0 l0 0 l0 0 l0 0 ZM634.5 262.5 q-50.5 -50.5 -122.5 -50.5 q-72 0 -122.5 50.5 q-50.5 50.5 -50.5 122 q0 71.5 50.5 122.5 q50.5 51 122.5 51 q72 0 122.5 -51 q50.5 -51 50.5 -122.5 q0 -71.5 -50.5 -122 Z" /><glyph glyph-name="eyeo" unicode="&#xe688;" d="M963 384 q0 14 -21 62 q-26 65 -61 109 q-57 71 -139 112 q-99 50 -230 50 q-131 0 -231 -50 q-80 -41 -138 -112 q-34 -43 -61 -109 q-21 -48 -21 -62 l0 0 l0 0 l0 0 l0 0 q0 -14 21 -62 q27 -66 61 -109 q57 -71 139 -112 q100 -50 230 -50 q130 0 230 50 q81 41 139 112 q35 44 62 109 q20 48 20 62 l0 0 l0 0 l0 0 l0 0 ZM889 384 q-25 -77 -64 -126 l-1 0 q-46 -59 -114 -93 q-85 -42 -198.5 -42 q-113.5 0 -198.5 42 q-67 34 -114 93 q-40 49 -65 126 q25 77 65 126 q47 59 114 93 q85 43 199 43 q114 0 198 -43 q67 -33 114 -93 q40 -49 65 -126 ZM634.5 507.5 q-50.5 50.5 -122.5 50.5 q-72 0 -122.5 -50.5 q-50.5 -50.5 -50.5 -122.5 q0 -72 50.5 -122.5 q50.5 -50.5 122.5 -50.5 q72 0 122.5 50.5 q50.5 50.5 50.5 122.5 q0 72 -50.5 122.5 ZM584 457 q30 -30 30 -72 q0 -42 -30 -72 q-30 -30 -72 -30 q-42 0 -72 30 q-30 30 -30 72 q0 42 30 72 q30 30 72 30 q42 0 72 -30 Z" /><glyph glyph-name="camera" unicode="&#xe689;" d="M899 659 l-168 0 l-94 100 l-1 0 q-10 10 -26 10 l-196 0 q-16 0 -27 -10 l0 0 l-94 -100 l-168 0 q-26 0 -44.5 -18.5 q-18.5 -18.5 -18.5 -44.5 l0 -532 q0 -26 18.5 -44.5 q18.5 -18.5 44.5 -18.5 l774 -1 q26 0 44.5 19 q18.5 19 18.5 45 l0 532 q0 26 -18.5 44.5 q-18.5 18.5 -44.5 18.5 ZM428 696 l168 0 l35 -37 l-238 0 l35 37 ZM634 215 q-51 -51 -123 -51 q-72 0 -123 51 q-51 51 -51 123 q0 72 51 123 q51 51 123 51 q72 0 123 -51 q51 -51 51 -123 q0 -72 -51 -123 ZM511 440 q-42 0 -72 -30 q-30 -30 -30 -72.5 q0 -42.5 30 -72.5 q30 -30 72.5 -30 q42.5 0 72.5 30 q30 30 30 72.5 q0 42.5 -30 72.5 q-30 30 -73 30 Z" /><glyph glyph-name="camerao" unicode="&#xe68a;" d="M388 215 q51 -51 123 -51 q72 0 123 51 q51 51 51 123 q0 72 -51 123 q-51 51 -123 51 q-72 0 -123 -51 q-51 -51 -51 -123 q0 -72 51 -123 ZM409 337.5 q0 42.5 30 72.5 q30 30 72.5 30 q42.5 0 72.5 -30 q30 -30 30 -72.5 q0 -42.5 -30 -72.5 q-30 -30 -72.5 -30 q-42.5 0 -72.5 30 q-30 30 -30 72.5 ZM899 659 l-168 0 l-94 100 l-1 0 q-10 10 -26 10 l-196 0 q-16 0 -27 -10 l0 0 l-94 -100 l-168 0 q-26 0 -44.5 -18.5 q-18.5 -18.5 -18.5 -44.5 l0 -532 q0 -26 18.5 -44.5 q18.5 -18.5 44.5 -18.5 l774 -1 q26 0 44.5 19 q18.5 19 18.5 45 l0 532 q0 26 -18.5 44.5 q-18.5 18.5 -44.5 18.5 ZM428 696 l168 0 l35 -37 l-238 0 l35 37 ZM881 81 l-739 0 l0 497 l739 0 l0 -497 Z" /><glyph glyph-name="windows" unicode="&#xe68b;" d="M527 27 l434 -71 l0 401 l-434 0 l0 -330 ZM527 758 l0 -329 l434 0 l0 401 l-434 -72 ZM68 429 l367 0 l0 317 l-367 -61 l0 -256 ZM68 99 l367 -60 l0 318 l-367 0 l0 -258 Z" /><glyph glyph-name="export2" unicode="&#xe690;" d="M223.5 483.5 q10.5 -10.5 25 -10.5 q14.5 0 25 10.5 q10.5 10.5 10.5 25.5 l0 203 q0 8 5.5 13.5 q5.5 5.5 13.5 5.5 l567 0 q8 0 13 -5.5 q5 -5.5 5 -13.5 l0 -587 q0 -7 -5 -12.5 q-5 -5.5 -13 -5.5 l-255 0 q-15 0 -25.5 -10.5 q-10.5 -10.5 -10.5 -25.5 q0 -15 10.5 -25.5 q10.5 -10.5 25.5 -10.5 l255 0 q37 0 63.5 26.5 q26.5 26.5 26.5 63.5 l0 587 q0 38 -26.5 64 q-26.5 26 -63.5 26 l-567 0 q-38 0 -64 -26 q-26 -26 -26 -64 l0 -203 q0 -15 10.5 -25.5 ZM622 263 q44 66 55 136 q2 14 -7 26 q-9 12 -23 14 q-3 1 -5 1 q-14 0 -24 -9 q-10 -9 -12 -22 q-1 -5 -3.5 -17.5 q-2.5 -12.5 -14 -40 q-11.5 -27.5 -26.5 -50.5 q-70 -104 -206 -104 q-3 0 -4 0 q-14 0 -25 -10.5 q-11 -10.5 -11 -25.5 l0 -42 l-100 96 l101 84 l0 -35 q0 -14 10.5 -24.5 q10.5 -10.5 25 -10.5 q14.5 0 25 10.5 q10.5 10.5 10.5 24.5 l0 111 q0 23 -20 33 q-7 3 -16 3 q-12 0 -22 -8 l-190 -159 q-13 -10 -13 -26 q-1 -16 11 -27 l190 -181 q17 -16 38.5 -7 q21.5 9 21.5 33 l0 91 q152 13 234 136 Z" /><glyph glyph-name="export" unicode="&#xe691;" d="M863.5 319.5 q-10.5 10.5 -25.5 10.5 q-15 0 -25.5 -10.5 q-10.5 -10.5 -10.5 -25.5 l0 -204 q0 -8 -5.5 -13 q-5.5 -5 -12.5 -5 l-567 0 q-8 0 -13.5 5 q-5.5 5 -5.5 13 l0 587 q0 8 5.5 13.5 q5.5 5.5 13.5 5.5 l254 0 q15 0 25.5 10.5 q10.5 10.5 10.5 25 q0 14.5 -10.5 25 q-10.5 10.5 -25.5 10.5 l-254 0 q-37 0 -63.5 -26 q-26.5 -26 -26.5 -64 l0 -587 q0 -37 26.5 -63.5 q26.5 -26.5 63.5 -26.5 l567 0 q37 0 63.5 26.5 q26.5 26.5 26.5 63.5 l0 204 q0 15 -10.5 25.5 ZM464 540 q-45 -68 -54 -136 q-2 -15 7 -26.5 q9 -11.5 23 -13.5 q2 -1 5 -1 q13 0 23.5 9 q10.5 9 12.5 22 q0 5 3 17.5 q3 12.5 14 40 q11 27.5 27 50.5 q70 103 206 104 q3 -1 3 -1 q15 0 25.5 10.5 q10.5 10.5 10.5 25.5 l0 42 l101 -95 l-101 -84 l0 34 q0 15 -10.5 25.5 q-10.5 10.5 -25.5 10.5 q-15 0 -25.5 -10.5 q-10.5 -10.5 -10.5 -25.5 l0 -111 q0 -22 21 -32 q7 -3 15 -3 q13 0 23 8 l190 158 q12 11 13 26 q0 17 -11 28 l-190 181 q-17 16 -39 6.5 q-22 -9.5 -22 -32.5 l0 -91 q-152 -13 -234 -136 Z" /><glyph glyph-name="circledowno" unicode="&#xe693;" d="M710.5 854.5 q-94.5 40.5 -198.5 40.5 q-104 0 -199 -40.5 q-95 -40.5 -163.5 -109 q-68.5 -68.5 -109 -163 q-40.5 -94.5 -40.5 -199 q0 -104.5 40.5 -199 q40.5 -94.5 109 -163 q68.5 -68.5 163.5 -109 q95 -40.5 199 -40.5 q104 0 198.5 40.5 q94.5 40.5 163 109 q68.5 68.5 109 163 q40.5 94.5 40.5 199 q0 104.5 -40.5 199 q-40.5 94.5 -109 163 q-68.5 68.5 -163 109 ZM917 212 q-34 -78 -95 -139 q-61 -61 -139 -94 q-82 -35 -171.5 -35 q-89.5 0 -171.5 35 q-79 33 -139.5 94 q-60.5 61 -94.5 140 q-34 81 -34 170.5 q0 89.5 35 171.5 q33 79 94 139.5 q61 60.5 140 94.5 q81 34 170.5 34 q89.5 0 171.5 -34 q79 -34 139.5 -95 q60.5 -61 94.5 -139 q34 -82 34 -171.5 q0 -89.5 -34 -171.5 ZM768 520 q-16 0 -28 -12 l-229 -229 l-228 228 q-12 12 -28.5 12 q-16.5 0 -28 -11.5 q-11.5 -11.5 -11.5 -28 q0 -16.5 12 -28.5 l256 -255 q11 -12 27.5 -12 q16.5 0 28.5 12 l257 256 q12 12 12 28.5 q0 16.5 -12 27.5 q-12 12 -28 12 Z" /><glyph glyph-name="circledown" unicode="&#xe694;" d="M710.5 854.5 q-94.5 40.5 -198.5 40.5 q-104 0 -199 -40.5 q-95 -40.5 -163.5 -109 q-68.5 -68.5 -109 -163 q-40.5 -94.5 -40.5 -199 q0 -104.5 40.5 -199 q40.5 -94.5 109 -163 q68.5 -68.5 163.5 -109 q95 -40.5 199 -40.5 q104 0 198.5 40.5 q94.5 40.5 163 109 q68.5 68.5 109 163 q40.5 94.5 40.5 199 q0 104.5 -40.5 199 q-40.5 94.5 -109 163 q-68.5 68.5 -163 109 ZM796 452 l-258 -256 q-11 -12 -27 -12 q-17 0 -28 12 l-256 255 q-12 12 -12 28.5 q0 16.5 11.5 28 q11.5 11.5 28 11.5 q16.5 0 28.5 -12 l227 -228 l230 229 q12 12 28.5 12 q16.5 0 28 -11.5 q11.5 -11.5 11.5 -28.5 q0 -16 -12 -28 Z" /><glyph glyph-name="hdd" unicode="&#xe69a;" d="M786 765 l0 0 q-4 15 -17 24.5 q-13 9.5 -29 9.5 l-462 0 q-16 0 -29 -9.5 q-13 -9.5 -17 -24.5 l0 0 q-3 -8 -68 -243 q-68 -245 -68 -248 l0 -257 q0 -20 14.5 -34.5 q14.5 -14.5 34.5 -14.5 l733 0 q20 0 34.5 14.5 q14.5 14.5 14.5 34.5 l1 265 l-142 483 ZM864 224 l0 -193 l-705 0 l0 193 l705 0 ZM861 287 l-699 0 l127 449 l440 0 l132 -449 ZM566 79.5 q9 -9.5 22 -9.5 q13 0 22.5 9.5 q9.5 9.5 9.5 22.5 l0 51 q0 13 -9.5 22.5 q-9.5 9.5 -22.5 9.5 q-13 0 -22 -9.5 q-9 -9.5 -9 -22.5 l0 -51 q0 -13 9 -22.5 ZM669 79.5 q9 -9.5 22 -9.5 q13 0 22.5 9.5 q9.5 9.5 9.5 22.5 l0 51 q0 13 -9.5 22.5 q-9.5 9.5 -22.5 9.5 q-13 0 -22 -9.5 q-9 -9.5 -9 -22.5 l0 -51 q0 -13 9 -22.5 ZM771.5 79.5 q9.5 -9.5 22.5 -9.5 q13 0 22 9.5 q9 9.5 9 22.5 l0 51 q0 13 -9 22.5 q-9 9.5 -22 9.5 q-13 0 -22.5 -9.5 q-9.5 -9.5 -9.5 -22.5 l0 -51 q0 -13 9.5 -22.5 Z" /><glyph glyph-name="ie" unicode="&#xe69b;" d="M878 548 q24 66 22 118 q-3 57 -37 91 q-33 33 -111.5 27.5 q-78.5 -5.5 -173.5 -47.5 q-13 1 -27 1 q-65 0 -126 -21 q-58 -21 -107 -60 q-101 -80 -132 -203 l-7 -28 l17 22 q69 89 150 136 q-22 -21 -25 -25 q-73 -73 -126 -159 q-49 -80 -75 -160 q-25 -75 -24 -135 q1 -60 28 -88 q37 -36 99 -36 q69 0 160 44 q78 -39 168 -39 q121 0 219 70 q98 70 137 184 l3 8 l-213 0 l-1 -3 q-21 -38 -58 -60 q-37 -22 -80.5 -22 q-43.5 0 -80.5 22 q-37 22 -57 60 q-18 32 -19 69 l319 0 l204 0 l1 5 q2 20 2 43 q0 100 -49 186 ZM201 222 q45 -111 146 -177 q-54 -23 -95 -26 q-45 -3 -67 20 q-23 23 -19 71 q4 48 35 112 ZM859 578 q-30 42 -70 75 q-39 32 -85 53 q108 42 149 1 q37 -38 6 -129 ZM402 423 q5 57 48 96 q43 39 101 39 q58 0 100.5 -39 q42.5 -39 48.5 -96 l-298 0 Z" /><glyph glyph-name="delete" unicode="&#xe69f;" d="M178 -50 q-1 0 -3 1 q0 0 1 -0.5 q1 -0.5 2 -0.5 ZM170 -46 q-3 2 -5 3 q2 -1 5 -3 ZM961 667.5 q0 14.5 -10.5 25 q-10.5 10.5 -26.5 10.5 l-184 0 l0 58 q0 29 -21 49.5 q-21 20.5 -50 20.5 l-314 0 q-30 0 -50.5 -20.5 q-20.5 -20.5 -20.5 -49.5 l0 -58 l-185 0 q-15 0 -25.5 -10.5 q-10.5 -10.5 -10.5 -25 q0 -14.5 10.5 -25 q10.5 -10.5 25.5 -10.5 l31 0 l0 -623 q0 -29 21 -49.5 q21 -20.5 50 -20.5 l632 0 q29 0 50 20.5 q21 20.5 21 49.5 l0 623 l20 0 q15 0 26 10.5 q11 10.5 11 25 ZM354 760 l315 0 l0 -57 l-315 0 l0 57 ZM833 9 l-632 0 l0 623 l91 0 l541 0 l0 -623 l0 0 ZM536.5 501.5 q-10.5 10.5 -25 10.5 q-14.5 0 -25 -10.5 q-10.5 -10.5 -10.5 -25.5 l0 -334 q0 -15 10.5 -25.5 q10.5 -10.5 25 -10.5 q14.5 0 25 10.5 q10.5 10.5 10.5 25.5 l0 334 q0 15 -10.5 25.5 ZM342.5 501.5 q-10.5 10.5 -25.5 10.5 q-15 0 -25.5 -10.5 q-10.5 -10.5 -10.5 -25.5 l0 -334 q0 -15 10.5 -25.5 q10.5 -10.5 25.5 -10.5 q15 0 25.5 10.5 q10.5 10.5 10.5 25.5 l0 334 q0 15 -10.5 25.5 ZM729.5 501.5 q-10.5 10.5 -25.5 10.5 q-15 0 -25.5 -10.5 q-10.5 -10.5 -10.5 -25.5 l0 -334 q0 -15 10.5 -25.5 q10.5 -10.5 25.5 -10.5 q15 0 25.5 10.5 q10.5 10.5 10.5 25.5 l0 334 q0 15 -10.5 25.5 Z" /><glyph glyph-name="enter" unicode="&#xe6a0;" d="M900 510 l0 192 q0 17 -11.5 28.5 q-11.5 11.5 -28 11.5 q-16.5 0 -28.5 -11.5 q-12 -11.5 -12 -28.5 l0 -192 q0 -92 -65 -157 q-65 -65 -157 -65 l-340 0 l113 112 q11 12 11 28.5 q0 16.5 -11.5 28 q-11.5 11.5 -28 11.5 q-16.5 0 -28.5 -12 l-178 -178 q-12 -12 -12 -28.5 q0 -16.5 12 -28.5 l183 -183 q12 -12 28.5 -12 q16.5 0 28.5 11.5 q12 11.5 12 28 q0 16.5 -12 28.5 l-114 114 l336 0 q125 0 213.5 88.5 q88.5 88.5 88.5 213.5 Z" /><glyph glyph-name="pushpino" unicode="&#xe6a1;" d="M303 728 q2 -10 1 -20 l-1 -36 l29 -23 l214 -170 l30 -24 l37 12 q44 15 90 15 q49 0 95 -16 q26 -10 51 -24 l-169 -170 l-43 -43 l-13 -13 l0 0 l-169 -170 q-27 45 -36 96 q-13 72 10 141 l12 37 l-24 30 l-170 214 l-23 29 l-36 -1 q0 0 -1.5 0 q-1.5 0 -2.5 0 q-8 0 -16 1 l135 135 ZM318 831 q-14 0 -24 -10 l-219 -219 q-11 -11 -9.5 -27 q1.5 -16 14.5 -24 q48 -31 104 -31 q4 0 6 0 l170 -215 q-28 -84 -11.5 -175.5 q16.5 -91.5 74.5 -163.5 q11 -13 27 -13 q14 0 24 10 l206 207 l223 -223 q10 -10 23.5 -10 q13.5 0 23 9.5 q9.5 9.5 9.5 23 q0 13.5 -10 23.5 l-223 223 l206 207 q11 11 10 26 q-1 15 -13 25 q-98 80 -226 80 q-57 0 -112 -18 l-215 170 q2 60 -30 110 q-10 15 -28 15 l0 0 Z" /><glyph glyph-name="pushpin" unicode="&#xe6a2;" d="M949 -7 l-223 223 l206 207 q11 11 10 26 q-1 15 -13 25 q-72 58 -163 74 q-91 16 -175 -12 l-215 170 q2 60 -30 110 q-9 13 -25 14.5 q-16 1.5 -27 -9.5 l-219 -219 q-11 -11 -9.5 -27 q1.5 -16 14.5 -24 q50 -33 110 -31 l170 -215 q-28 -84 -11.5 -175.5 q16.5 -91.5 74.5 -163.5 q10 -12 25 -13 q15 -1 26 10 l206 207 l223 -223 q10 -10 23.5 -10 q13.5 0 23 9.5 q9.5 9.5 9.5 23 q0 13.5 -10 23.5 Z" /><glyph glyph-name="heart" unicode="&#xe6a3;" d="M1000 648 q-23 56 -66 99 q-84 85 -201 85 q-64 0 -121.5 -28 q-57.5 -28 -99.5 -79 q-42 51 -99.5 79 q-57.5 28 -121.5 28 q-117 0 -201 -86 q-43 -43 -66 -99 q-25 -59 -24 -122 q1 -69 29 -130.5 q28 -61.5 79 -104.5 q5 -4 9 -8 q14 -12 113 -102 q208 -191 257 -235 q11 -9 25 -9 q14 0 25 9 q33 30 181 165 q158 144 196 179 q52 43 81 105 q29 62 29 132 q0 64 -24 122 Z" /><glyph glyph-name="hearto" unicode="&#xe6a4;" d="M1000 648 q-23 56 -66 99 q-84 85 -201 85 q-64 0 -121.5 -28 q-57.5 -28 -99.5 -79 q-42 51 -99.5 79 q-57.5 28 -121.5 28 q-117 0 -201 -86 q-43 -43 -66 -99 q-25 -59 -24 -122 q1 -69 29 -130.5 q28 -61.5 79 -104.5 q5 -4 9 -8 q14 -12 113 -102 q208 -191 257 -235 q11 -9 25 -9 q14 0 25 9 q33 30 181 165 q158 144 196 179 q52 43 81 105 q29 62 29 132 q0 64 -24 122 ZM568 672 q30 40 73.5 61.5 q43.5 21.5 91.5 21.5 q85 0 147 -62 q32 -32 49 -74 q18 -44 18 -93 q0 -53 -22 -101 q-22 -46 -60 -77 l-2 -2 q-62 -55 -197 -180 q-108 -98 -154 -140 q-58 53 -202 184 l-48 44 q-76 69 -94 85 q-1 2 -2 3 q-6 4 -8 7 q-39 32 -60 78.5 q-21 46.5 -21 97.5 q-1 49 18 93 q17 42 49 74 q62 63 147 63 q48 0 91.5 -22 q43.5 -22 73.5 -61 q21 -28 56 -28 q35 0 56 28 Z" /><glyph glyph-name="smile-circle" unicode="&#xe6a7;" d="M769 827.5 q-118 68.5 -257 68.5 q-139 0 -257 -68.5 q-118 -68.5 -186.5 -186.5 q-68.5 -118 -68.5 -257 q0 -139 68.5 -257 q68.5 -118 186.5 -186.5 q118 -68.5 257 -68.5 q139 0 257 68.5 q118 68.5 186.5 186.5 q68.5 118 68.5 257 q0 139 -68.5 257 q-68.5 118 -186.5 186.5 ZM296.5 471.5 q-17.5 -17.5 -42.5 -17.5 q-25 0 -42.5 17.5 q-17.5 17.5 -17.5 42 q0 24.5 17.5 42.5 q17.5 18 42.5 18 q25 0 42.5 -18 q17.5 -18 17.5 -42.5 q0 -24.5 -17.5 -42 ZM628 178.5 q-48 -48.5 -116 -48.5 q-68 0 -116 48.5 q-48 48.5 -48 116.5 q0 15 10.5 25.5 q10.5 10.5 25.5 10.5 q15 0 25.5 -10.5 q10.5 -10.5 10.5 -25.5 q0 -38 27 -65.5 q27 -27.5 65 -27.5 q38 0 65 27.5 q27 27.5 27 65.5 q0 15 10.5 25.5 q10.5 10.5 25.5 10.5 q15 0 25.5 -10.5 q10.5 -10.5 10.5 -25.5 q0 -68 -48 -116.5 ZM812 471.5 q-18 -17.5 -42.5 -17.5 q-24.5 0 -42 17.5 q-17.5 17.5 -17.5 42 q0 24.5 17.5 42.5 q17.5 18 42 18 q24.5 0 42.5 -18 q18 -18 18 -42.5 q0 -24.5 -18 -42 Z" /><glyph glyph-name="smileo" unicode="&#xe6a8;" d="M769 827.5 q-118 68.5 -257 68.5 q-139 0 -257 -68.5 q-118 -68.5 -186.5 -186.5 q-68.5 -118 -68.5 -257 q0 -139 68.5 -257 q68.5 -118 186.5 -186.5 q118 -68.5 257 -68.5 q139 0 257 68.5 q118 68.5 186.5 186.5 q68.5 118 68.5 257 q0 139 -68.5 257 q-68.5 118 -186.5 186.5 ZM823 73 q-61 -61 -140 -94 q-81 -35 -171 -35 q-90 0 -171 34 q-79 34 -140 95 q-61 61 -94 140 q-35 81 -35 171 q0 90 34 171 q34 79 95 140 q61 61 140 94 q81 35 171 35 q90 0 171 -34 q79 -34 140 -95 q61 -61 94 -140 q35 -81 35 -171 q0 -90 -34 -171 q-34 -79 -95 -140 ZM665.5 320.5 q-10.5 10.5 -25.5 10.5 q-15 0 -25.5 -10.5 q-10.5 -10.5 -10.5 -25.5 q0 -38 -27 -65.5 q-27 -27.5 -65 -27.5 q-38 0 -65 27.5 q-27 27.5 -27 65.5 q0 15 -10.5 25.5 q-10.5 10.5 -25.5 10.5 q-15 0 -25.5 -10.5 q-10.5 -10.5 -10.5 -25.5 q0 -68 48 -116.5 q48 -48.5 116 -48.5 q68 0 116 48.5 q48 48.5 48 116.5 q0 15 -10.5 25.5 ZM254 514 l0 0 ZM211.5 471.5 q-17.5 17.5 -17.5 42 q0 24.5 17.5 42.5 q17.5 18 42.5 18 q25 0 42.5 -18 q17.5 -18 17.5 -42.5 q0 -24.5 -17.5 -42 q-17.5 -17.5 -42.5 -17.5 q-25 0 -42.5 17.5 ZM770 514 l0 0 ZM727.5 471.5 q-17.5 17.5 -17.5 42 q0 24.5 17.5 42.5 q17.5 18 42 18 q24.5 0 42.5 -18 q18 -18 18 -42.5 q0 -24.5 -18 -42 q-18 -17.5 -42.5 -17.5 q-24.5 0 -42 17.5 Z" /><glyph glyph-name="frowno" unicode="&#xe6a9;" d="M769 827.5 q-118 68.5 -257 68.5 q-139 0 -257 -68.5 q-118 -68.5 -186.5 -186.5 q-68.5 -118 -68.5 -257 q0 -139 68.5 -257 q68.5 -118 186.5 -186.5 q118 -68.5 257 -68.5 q139 0 257 68.5 q118 68.5 186.5 186.5 q68.5 118 68.5 257 q0 139 -68.5 257 q-68.5 118 -186.5 186.5 ZM823 73 q-61 -61 -140 -94 q-81 -35 -171 -35 q-90 0 -171 34 q-79 34 -140 95 q-61 61 -94 140 q-35 81 -35 171 q0 90 34 171 q34 79 95 140 q61 61 140 94 q81 35 171 35 q90 0 171 -34 q79 -34 140 -95 q61 -61 94 -140 q35 -81 35 -171 q0 -90 -34 -171 q-34 -79 -95 -140 ZM665.5 141 q-10.5 -11 -25.5 -11 q-15 0 -25.5 11 q-10.5 11 -10.5 25 q0 39 -27 66 q-27 27 -65 27 q-38 0 -65 -27 q-27 -27 -27 -66 q0 -14 -10.5 -25 q-10.5 -11 -25.5 -11 q-15 0 -25.5 11 q-10.5 11 -10.5 25 q0 68 48 116.5 q48 48.5 116 48.5 q68 0 116 -48.5 q48 -48.5 48 -116.5 q0 -14 -10.5 -25 ZM254 514 l0 0 ZM211.5 471.5 q-17.5 17.5 -17.5 42 q0 24.5 17.5 42.5 q17.5 18 42.5 18 q25 0 42.5 -18 q17.5 -18 17.5 -42.5 q0 -24.5 -17.5 -42 q-17.5 -17.5 -42.5 -17.5 q-25 0 -42.5 17.5 ZM770 514 l0 0 ZM727.5 471.5 q-17.5 17.5 -17.5 42 q0 24.5 17.5 42.5 q17.5 18 42 18 q24.5 0 42.5 -18 q18 -18 18 -42.5 q0 -24.5 -18 -42 q-18 -17.5 -42.5 -17.5 q-24.5 0 -42 17.5 Z" /><glyph glyph-name="calculator" unicode="&#xe6aa;" d="M857 832 l-689 0 q-16 0 -27.5 -11.5 q-11.5 -11.5 -11.5 -27.5 l0 -818 q0 -16 11.5 -27.5 q11.5 -11.5 27.5 -11.5 l689 0 q16 0 27 11.5 q11 11.5 11 27.5 l0 818 q0 16 -11 27.5 q-11 11.5 -27 11.5 ZM818 14 l-612 0 l0 740 l612 0 l0 -740 l0 0 ZM324 410 l377 0 q16 0 27.5 11.5 q11.5 11.5 11.5 27.5 l0 185 q0 16 -11.5 27.5 q-11.5 11.5 -27.5 11.5 l-377 0 q-16 0 -27.5 -11.5 q-11.5 -11.5 -11.5 -27.5 l0 -185 q0 -16 11.5 -27.5 q11.5 -11.5 27.5 -11.5 ZM362 595 l300 0 l0 -108 l-300 0 l0 108 ZM293 189 l23 0 l0 -23 q0 -16 11.5 -27.5 q11.5 -11.5 27.5 -11.5 q16 0 27.5 11.5 q11.5 11.5 11.5 27.5 l0 23 l23 0 q16 0 27.5 11.5 q11.5 11.5 11.5 27.5 q0 16 -11.5 27 q-11.5 11 -27.5 11 l-23 0 l0 24 q0 16 -11.5 27 q-11.5 11 -27.5 11 q-16 0 -27.5 -11 q-11.5 -11 -11.5 -27 l0 -24 l-23 0 q-16 0 -27.5 -11 q-11.5 -11 -11.5 -27 q0 -16 11.5 -27.5 q11.5 -11.5 27.5 -11.5 ZM607 328 q-16 0 -27.5 -11 q-11.5 -11 -11.5 -27 q0 -16 11.5 -27.5 q11.5 -11.5 27.5 -11.5 l124 0 q16 0 27.5 11.5 q11.5 11.5 11.5 27.5 q0 16 -11.5 27 q-11.5 11 -27.5 11 l-124 0 ZM731 162 l-124 0 q-16 0 -27.5 -11.5 q-11.5 -11.5 -11.5 -27.5 q0 -16 11.5 -27.5 q11.5 -11.5 27.5 -11.5 l124 0 q16 0 27.5 11.5 q11.5 11.5 11.5 27.5 q0 16 -11.5 27.5 q-11.5 11.5 -27.5 11.5 Z" /><glyph glyph-name="chrome" unicode="&#xe6ac;" d="M258 449 l-146 254 q71 90 176 141.5 q105 51.5 224 51.5 q138 0 255.5 -68 q117.5 -68 185.5 -183 l-418 0 q-11 1 -23 1 q-90 0 -161 -55.5 q-71 -55.5 -93 -141.5 l0 0 ZM695 571 l294 0 q35 -90 35 -187 q0 -103 -40 -197.5 q-40 -94.5 -107.5 -163 q-67.5 -68.5 -161.5 -109.5 q-94 -41 -197 -42 l209 363 q47 67 47 149 q0 110 -79 187 l0 0 l0 0 ZM380.5 252.5 q-54.5 54.5 -54.5 131.5 q0 77 54.5 131.5 q54.5 54.5 131.5 54.5 q77 0 131.5 -54.5 q54.5 -54.5 54.5 -131.5 q0 -77 -54.5 -131.5 q-54.5 -54.5 -131.5 -54.5 q-77 0 -131.5 54.5 ZM582 131 l-146 -253 q-122 18 -222 89 q-100 71 -157 181 q-57 110 -57 236 q0 135 66 251 l209 -362 q32 -68 96 -109.5 q64 -41.5 141 -41.5 q36 0 70 9 Z" /></font>
</defs>
</svg>
